<svg width="163" height="49" viewBox="0 0 163 49" fill="none" xmlns="http://www.w3.org/2000/svg">
<path d="M162.5 42.7456C162.5 45.8828 159.709 48.5 156.173 48.5H6.82814C3.29165 48.5003 0.499985 45.8829 0.499985 42.7456V6.25387C0.499985 3.11713 3.29159 0.5 6.82814 0.5H156.173C159.709 0.5 162.5 3.11701 162.5 6.25387L162.5 42.7456Z" stroke="white"/>
<path d="M65.5051 31.8991H63.0384L61.6872 27.8658H56.9907L55.7036 31.8991H53.3022L57.9552 18.168H60.8292L65.5051 31.8991ZM61.2799 26.1737L60.058 22.5882C59.9288 22.2219 59.6866 21.3593 59.3292 20.0015H59.2858C59.1435 20.5855 58.9143 21.4481 58.5993 22.5882L57.3991 26.1737H61.2799Z" fill="white"/>
<path d="M77.4712 26.8268C77.4712 28.5107 76.9922 29.8417 76.0342 30.8188C75.1761 31.6887 74.1106 32.123 72.8387 32.123C71.4658 32.123 70.4796 31.6546 69.879 30.7177H69.8355V35.9335H67.5199V25.2575C67.5199 24.1988 67.4905 23.1124 67.4341 21.998H69.4706L69.5998 23.5674H69.6433C70.4155 22.3849 71.5875 21.7948 73.1602 21.7948C74.3898 21.7948 75.4162 22.256 76.2373 23.1794C77.0606 24.1039 77.4712 25.3194 77.4712 26.8268ZM75.112 26.9073C75.112 25.9436 74.884 25.1491 74.4256 24.5239C73.9249 23.8718 73.2526 23.5457 72.4097 23.5457C71.8384 23.5457 71.3192 23.7273 70.8554 24.0853C70.3906 24.4465 70.0864 24.918 69.9441 25.502C69.8725 25.7744 69.8366 25.9973 69.8366 26.1727V27.8235C69.8366 28.5437 70.0691 29.1515 70.5339 29.6478C70.9988 30.1441 71.6027 30.3917 72.3456 30.3917C73.2178 30.3917 73.8966 30.0718 74.3822 29.4342C74.8687 28.7955 75.112 27.9536 75.112 26.9073Z" fill="white"/>
<path d="M89.459 26.8268C89.459 28.5107 88.98 29.8417 88.0209 30.8188C87.164 31.6887 86.0984 32.123 84.8266 32.123C83.4537 32.123 82.4674 31.6546 81.8679 30.7177H81.8244V35.9335H79.5088V25.2575C79.5088 24.1988 79.4794 23.1124 79.423 21.998H81.4595L81.5888 23.5674H81.6322C82.4034 22.3849 83.5753 21.7948 85.1492 21.7948C86.3776 21.7948 87.404 22.256 88.2273 23.1794C89.0473 24.1039 89.459 25.3194 89.459 26.8268ZM87.0999 26.9073C87.0999 25.9436 86.8707 25.1491 86.4123 24.5239C85.9116 23.8718 85.2415 23.5457 84.3975 23.5457C83.8251 23.5457 83.307 23.7273 82.8422 24.0853C82.3773 24.4465 82.0743 24.918 81.932 25.502C81.8614 25.7744 81.8244 25.9973 81.8244 26.1727V27.8235C81.8244 28.5437 82.0569 29.1515 82.5196 29.6478C82.9845 30.143 83.5884 30.3917 84.3335 30.3917C85.2056 30.3917 85.8845 30.0718 86.37 29.4342C86.8566 28.7955 87.0999 27.9536 87.0999 26.9073Z" fill="white"/>
<path d="M102.862 28.0485C102.862 29.2165 102.435 30.1668 101.578 30.9004C100.637 31.7021 99.3256 32.1024 97.641 32.1024C96.0856 32.1024 94.8387 31.8176 93.8948 31.247L94.4314 29.4135C95.448 29.9975 96.5635 30.2906 97.7789 30.2906C98.6511 30.2906 99.3299 30.1028 99.8176 29.7293C100.303 29.3558 100.545 28.8543 100.545 28.229C100.545 27.6719 100.345 27.2024 99.9447 26.8217C99.546 26.4409 98.8802 26.087 97.9505 25.76C95.4198 24.8633 94.1555 23.5498 94.1555 21.8226C94.1555 20.6938 94.5986 19.7683 95.486 19.0481C96.3702 18.3269 97.5497 17.9668 99.0247 17.9668C100.34 17.9668 101.433 18.1845 102.305 18.6189L101.726 20.4122C100.911 19.9912 99.9903 19.7807 98.9595 19.7807C98.1449 19.7807 97.5084 19.9716 97.0523 20.3513C96.6667 20.6907 96.4733 21.1045 96.4733 21.5946C96.4733 22.1373 96.6938 22.5861 97.137 22.939C97.5226 23.2651 98.2231 23.6179 99.2398 23.9987C100.483 24.4743 101.397 25.0305 101.984 25.6681C102.57 26.3037 102.862 27.0992 102.862 28.0485Z" fill="white"/>
<path d="M110.518 23.6489H107.966V28.456C107.966 29.6787 108.416 30.2895 109.317 30.2895C109.731 30.2895 110.074 30.2555 110.346 30.1874L110.41 31.8579C109.954 32.0199 109.353 32.1014 108.609 32.1014C107.694 32.1014 106.98 31.8362 106.464 31.3069C105.95 30.7765 105.691 29.8871 105.691 28.6376V23.6468H104.171V21.996H105.691V20.1831L107.966 19.531V21.996H110.518V23.6489Z" fill="white"/>
<path d="M122.035 26.8671C122.035 28.389 121.576 29.6385 120.662 30.6156C119.703 31.6216 118.43 32.123 116.843 32.123C115.314 32.123 114.096 31.6412 113.188 30.6775C112.28 29.7138 111.826 28.4973 111.826 27.0311C111.826 25.4968 112.293 24.2401 113.23 23.263C114.166 22.2849 115.428 21.7958 117.015 21.7958C118.544 21.7958 119.774 22.2776 120.703 23.2424C121.592 24.1782 122.035 25.3864 122.035 26.8671ZM119.632 26.9383C119.632 26.0251 119.427 25.242 119.011 24.5889C118.525 23.7985 117.831 23.4044 116.932 23.4044C116.001 23.4044 115.294 23.7995 114.809 24.5889C114.393 25.243 114.187 26.0385 114.187 26.9795C114.187 27.8927 114.393 28.6758 114.809 29.3279C115.309 30.1183 116.009 30.5124 116.911 30.5124C117.796 30.5124 118.49 30.11 118.99 29.3073C119.417 28.6418 119.632 27.8504 119.632 26.9383Z" fill="white"/>
<path d="M129.562 23.9326C129.333 23.8924 129.088 23.8718 128.832 23.8718C128.017 23.8718 127.387 24.1638 126.944 24.7488C126.559 25.2647 126.365 25.9168 126.365 26.704V31.8991H124.051L124.072 25.1161C124.072 23.9749 124.043 22.9359 123.985 21.9991H126.002L126.087 23.8934H126.151C126.396 23.2424 126.781 22.7182 127.309 22.3251C127.825 21.9712 128.382 21.7948 128.983 21.7948C129.197 21.7948 129.39 21.8092 129.562 21.835V23.9326Z" fill="white"/>
<path d="M139.918 26.4801C139.918 26.8743 139.891 27.2065 139.833 27.4779H132.886C132.914 28.456 133.249 29.2041 133.894 29.72C134.48 30.1812 135.237 30.4123 136.167 30.4123C137.195 30.4123 138.134 30.2565 138.978 29.9439L139.34 31.4709C138.354 31.8795 137.19 32.0828 135.846 32.0828C134.23 32.0828 132.961 31.6309 132.038 30.7281C131.117 29.8252 130.656 28.6129 130.656 27.092C130.656 25.599 131.085 24.3557 131.944 23.3641C132.843 22.3055 134.058 21.7762 135.588 21.7762C137.09 21.7762 138.227 22.3055 138.999 23.3641C139.611 24.205 139.918 25.2451 139.918 26.4801ZM137.71 25.9096C137.725 25.2575 137.574 24.6941 137.26 24.2184C136.86 23.6066 136.244 23.3012 135.415 23.3012C134.658 23.3012 134.042 23.5994 133.572 24.1978C133.186 24.6735 132.957 25.2441 132.886 25.9085L137.71 25.9096Z" fill="white"/>
<path d="M33.3517 24.4622C33.3238 21.367 35.8931 19.8611 36.0106 19.791C34.5555 17.6754 32.3001 17.3863 31.5076 17.3633C29.6133 17.1645 27.7759 18.4936 26.811 18.4936C25.8268 18.4936 24.3409 17.3825 22.7394 17.4151C20.6785 17.4468 18.7506 18.6367 17.6932 20.4844C15.511 24.2518 17.1385 29.7883 19.2292 32.8335C20.275 34.3249 21.4971 35.9902 23.0967 35.9316C24.6615 35.8673 25.2461 34.9367 27.1346 34.9367C29.0057 34.9367 29.5546 35.9316 31.1859 35.8942C32.8654 35.8673 33.9228 34.396 34.932 32.8911C36.1406 31.1817 36.626 29.4982 36.6452 29.4118C36.6058 29.3984 33.3835 28.172 33.3517 24.4622Z" fill="white"/>
<path d="M30.2701 15.36C31.1118 14.3103 31.6877 12.8823 31.5278 11.4331C30.3096 11.4869 28.7861 12.2734 27.9088 13.3C27.1326 14.2047 26.4393 15.6875 26.6184 17.0819C27.9868 17.1837 29.3919 16.3933 30.2701 15.36Z" fill="white"/>
</svg>
