<svg width="163" height="49" viewBox="0 0 163 49" fill="none" xmlns="http://www.w3.org/2000/svg">
<path d="M162.5 42.7456C162.5 45.8385 159.432 48.5 155.44 48.5H7.56163C3.56933 48.5003 0.499985 45.8387 0.499985 42.7456V6.25387C0.499985 3.16134 3.56927 0.5 7.56163 0.5H155.44C159.432 0.5 162.5 3.16123 162.5 6.25387L162.5 42.7456Z" stroke="white"/>
<path fill-rule="evenodd" clip-rule="evenodd" d="M15.308 11.2042V37.7954L27.4475 24.4999L15.308 11.2042ZM14.8182 39.0936L28.1431 24.4999L14.8182 9.90591V39.0936Z" fill="white"/>
<path fill-rule="evenodd" clip-rule="evenodd" d="M14.8182 9.7998V9.90591L28.1431 24.4999L31.7219 20.5799L14.8182 9.7998ZM30.9218 20.6944L17.6169 12.2094L28.1431 23.7381L30.9218 20.6944Z" fill="white"/>
<path fill-rule="evenodd" clip-rule="evenodd" d="M31.7216 28.4194L28.1431 24.4999L14.8182 39.0936V39.1998L31.7216 28.4194ZM17.6172 36.79L30.9216 28.305L28.1431 25.2618L17.6172 36.79Z" fill="white"/>
<path fill-rule="evenodd" clip-rule="evenodd" d="M28.1431 24.4999L31.7216 28.4194L37.8687 24.4997L31.7219 20.5799L28.1431 24.4999ZM28.8387 24.4999L31.8008 27.7443L36.8891 24.4997L31.8011 21.2551L28.8387 24.4999Z" fill="white"/>
<path d="M122.675 31.7117C121.999 31.7117 121.383 31.5926 120.824 31.3548C120.266 31.1166 119.796 30.7504 119.417 30.2566H119.304C119.38 30.8352 119.417 31.3836 119.417 31.9018V35.979H117.846V21.6225H119.124L119.342 22.9787H119.417C119.822 22.4359 120.292 22.0447 120.829 21.8035C121.365 21.5624 121.981 21.4418 122.675 21.4418C124.051 21.4418 125.114 21.891 125.862 22.7889C126.61 23.6868 126.984 24.9468 126.984 26.5676C126.984 28.195 126.603 29.4588 125.843 30.3607C125.083 31.2616 124.027 31.7117 122.675 31.7117ZM122.448 22.7165C121.387 22.7165 120.62 22.997 120.147 23.5572C119.673 24.1177 119.43 25.0099 119.417 26.2335V26.5676C119.417 27.9601 119.661 28.9561 120.147 29.556C120.633 30.1559 121.413 30.4551 122.486 30.4551C123.383 30.4551 124.085 30.109 124.594 29.4158C125.101 28.723 125.355 27.7677 125.355 26.5495C125.355 25.3145 125.101 24.3661 124.594 23.7064C124.085 23.046 123.37 22.7165 122.448 22.7165Z" fill="white"/>
<path d="M130.624 31.5307H129.052V17.4638H130.624V31.5307Z" fill="white"/>
<path d="M139.662 31.5307L139.349 30.1204H139.273C138.755 30.7416 138.24 31.1623 137.725 31.3815C137.21 31.6019 136.568 31.7117 135.798 31.7117C134.769 31.7117 133.963 31.4585 133.378 30.9524C132.794 30.4463 132.502 29.7265 132.502 28.7919C132.502 26.7913 134.179 25.7424 137.531 25.6456L139.293 25.5912V24.9765C139.293 24.1989 139.117 23.6246 138.767 23.2544C138.417 22.8833 137.856 22.6981 137.086 22.6981C136.221 22.6981 135.242 22.9513 134.15 23.4574L133.667 22.3093C134.179 22.0441 134.739 21.8363 135.349 21.6856C135.958 21.535 136.568 21.4595 137.181 21.4595C138.418 21.4595 139.335 21.7214 139.932 22.2458C140.528 22.7703 140.827 23.611 140.827 24.7685V31.5304L139.662 31.5307ZM136.111 30.4734C137.089 30.4734 137.857 30.2172 138.416 29.7051C138.974 29.193 139.254 28.4755 139.254 27.553V26.6581L137.682 26.7209C136.432 26.7639 135.531 26.9486 134.978 27.2778C134.426 27.6062 134.15 28.1171 134.15 28.8102C134.15 29.3524 134.321 29.7655 134.666 30.0482C135.01 30.3318 135.491 30.4734 136.111 30.4734Z" fill="white"/>
<path d="M141.739 21.6225H143.424L145.697 27.273C146.196 28.5631 146.506 29.494 146.626 30.0669H146.701C146.784 29.7589 146.956 29.2336 147.217 28.4885C147.479 27.7439 148.337 25.4559 149.788 21.6225H151.475L147.014 32.9052C146.572 34.0202 146.056 34.8114 145.465 35.2793C144.875 35.746 144.15 35.979 143.293 35.979C142.813 35.979 142.339 35.9279 141.871 35.8257V34.6234C142.219 34.6956 142.607 34.732 143.037 34.732C144.116 34.732 144.886 34.1534 145.347 32.996L145.925 31.586L141.739 21.6225Z" fill="white"/>
<path d="M93.4731 22.5208C93.9721 22.915 95.0141 23.7432 95.0141 25.3192C95.0141 26.8518 94.1022 27.5786 93.1903 28.2615C92.9081 28.5307 92.5824 28.8218 92.5824 29.2782C92.5824 29.7332 92.9077 29.9822 93.1475 30.1689L93.9292 30.7481C94.8843 31.5152 95.7518 32.2203 95.7518 33.6508C95.7518 35.5987 93.7762 37.5668 90.0429 37.5668C86.8947 37.5668 85.3758 36.1373 85.3758 34.6028C85.3758 33.857 85.7648 32.8007 87.0474 32.0745C88.3924 31.2869 90.2171 31.1844 91.1936 31.1206C90.8887 30.7481 90.5422 30.3541 90.5422 29.7127C90.5422 29.3609 90.6512 29.1534 90.7592 28.9035C90.5195 28.9246 90.2811 28.9453 90.0637 28.9453C87.7634 28.9453 86.4609 27.308 86.4609 25.6923C86.4609 24.7388 86.9174 23.6812 87.8497 22.9153C89.0876 21.9413 90.5636 21.7751 91.7369 21.7751H96.2079L94.8185 22.5211L93.4731 22.5208ZM91.9313 31.7229C91.7577 31.7013 91.6488 31.7013 91.4327 31.7013C91.2374 31.7013 90.0634 31.7437 89.1528 32.0345C88.6753 32.199 87.2856 32.6963 87.2856 34.1686C87.2856 35.6393 88.7843 36.6978 91.1073 36.6978C93.19 36.6978 94.2984 35.7425 94.2984 34.4588C94.2984 33.3997 93.5818 32.8425 91.9313 31.7229ZM92.5613 27.7846C93.0599 27.3074 93.1027 26.645 93.1027 26.2715C93.1027 24.7797 92.1697 22.4586 90.3683 22.4586C89.8033 22.4586 89.196 22.7277 88.8485 23.1427C88.48 23.5778 88.3704 24.1368 88.3704 24.6763C88.3704 26.0646 89.2171 28.3653 91.0849 28.3653C91.6276 28.3653 92.2126 28.1166 92.5613 27.7846Z" fill="white"/>
<path d="M79.8064 31.3913C76.3607 31.3913 74.5184 28.8254 74.5184 26.5076C74.5184 23.7968 76.837 21.4804 80.1327 21.4804C83.3172 21.4804 85.3114 23.859 85.3114 26.3633C85.3117 28.8038 83.3402 31.3913 79.8064 31.3913ZM82.5153 29.7155C83.0362 29.0528 83.1663 28.2255 83.1663 27.4178C83.1663 25.5965 82.256 22.1209 79.5682 22.1209C78.8532 22.1209 78.1382 22.3904 77.6182 22.8258C76.7727 23.549 76.6203 24.4598 76.6203 25.3505C76.6203 27.3974 77.6824 30.7692 80.3056 30.7692C81.1507 30.7692 82.0179 30.3768 82.5153 29.7155Z" fill="white"/>
<path d="M68.0591 31.3913C64.6129 31.3913 62.7702 28.8254 62.7702 26.5076C62.7702 23.7968 65.0897 21.4804 68.3845 21.4804C71.57 21.4804 73.5638 23.859 73.5638 26.3633C73.5641 28.8038 71.5923 31.3913 68.0591 31.3913ZM70.7686 29.7155C71.2887 29.0528 71.4191 28.2255 71.4191 27.4178C71.4191 25.5965 70.5081 22.1209 67.8204 22.1209C67.1057 22.1209 66.39 22.3904 65.8703 22.8258C65.0249 23.549 64.8734 24.4598 64.8734 25.3505C64.8734 27.3974 65.9349 30.7692 68.5584 30.7692C69.4038 30.7692 70.2703 30.3768 70.7686 29.7155Z" fill="white"/>
<path d="M61.1145 31.0668L57.998 31.7533C56.7337 31.941 55.601 32.1061 54.4031 32.1061C48.3881 32.1061 46.101 27.883 46.101 24.5752C46.101 20.5401 49.3473 16.7966 54.9045 16.7966C56.0817 16.7966 57.2137 16.9626 58.2377 17.2332C59.8719 17.6702 60.6345 18.2105 61.1142 18.523L59.3049 20.1663L58.5426 20.332L59.0872 19.4996C58.3467 18.8137 56.9945 17.5451 54.4242 17.5451C50.9811 17.5451 48.3875 20.0424 48.3875 23.6824C48.3875 27.5922 51.3515 31.2743 56.1009 31.2743C57.4969 31.2743 58.2144 31.0043 58.8686 30.7541V27.4058L55.5789 27.572L57.3214 26.6765H61.9413L61.3753 27.1965C61.2216 27.3219 61.2005 27.364 61.157 27.5287C61.1343 27.7164 61.1139 28.3202 61.1139 28.528L61.1145 31.0668Z" fill="white"/>
<path d="M100.36 30.4678C99.6409 30.4052 99.4904 30.281 99.4904 29.4688V17.6951C99.4948 17.6503 99.4976 17.6043 99.502 17.561C99.5899 16.8333 99.8076 16.7085 100.484 16.3335H97.3667L95.732 17.0825H97.3979V17.0919L97.3967 17.0844V29.9271C97.3967 30.3424 97.3107 30.4055 96.8089 31.0289H100.666L101.473 30.5724C101.102 30.5294 100.731 30.5093 100.36 30.4678Z" fill="white"/>
<path d="M109.227 30.6591C108.99 30.7833 108.752 30.9286 108.515 31.0311C107.799 31.3408 107.064 31.4238 106.413 31.4238C105.723 31.4238 104.64 31.3811 103.535 30.6176C102 29.5838 101.329 27.8073 101.329 26.2583C101.329 23.0567 104.055 21.4868 106.284 21.4868C107.064 21.4868 107.865 21.6723 108.514 22.0656C109.595 22.7461 109.877 23.6344 110.027 24.1098L104.943 26.0731L103.276 26.197C103.817 28.8206 105.678 30.3482 107.734 30.3482C108.838 30.3482 109.639 29.9771 110.374 29.6265L109.227 30.6591ZM107.194 24.5019C107.604 24.3579 107.82 24.2334 107.82 23.9444C107.82 23.1187 106.847 22.1679 105.678 22.1679C104.811 22.1679 103.189 22.8087 103.189 25.0393C103.189 25.3905 103.233 25.7622 103.255 26.1353L107.194 24.5019Z" fill="white"/>
<path d="M111.316 21.6281V22.9912H111.142V21.6281H110.67V21.4868H111.788V21.6281H111.316Z" fill="white"/>
<path d="M113.263 22.9912V21.6155H113.255L112.815 22.9912H112.679L112.236 21.6155H112.23V22.9912H112.073V21.4868H112.343L112.744 22.7028H112.75L113.145 21.4868H113.419V22.9912H113.263Z" fill="white"/>
</svg>
