<svg width="27" height="28" viewBox="0 0 27 28" fill="none" xmlns="http://www.w3.org/2000/svg">
<g clip-path="url(#clip0)">
<g clip-path="url(#clip1)">
<path d="M18.6318 0.666504H8.63457C4.03417 0.666504 0.303528 4.39714 0.303528 8.99755V18.9948C0.303528 23.5952 4.03417 27.3258 8.63457 27.3258H18.6318C23.2322 27.3258 26.9629 23.5952 26.9629 18.9948V8.99755C26.9629 4.39714 23.2322 0.666504 18.6318 0.666504ZM24.4635 18.9948C24.4635 22.2106 21.8476 24.8265 18.6318 24.8265H8.63457C5.41879 24.8265 2.80284 22.2106 2.80284 18.9948V8.99755C2.80284 5.78176 5.41879 3.16582 8.63457 3.16582H18.6318C21.8476 3.16582 24.4635 5.78176 24.4635 8.99755V18.9948Z" fill="white"/>
<path d="M13.6332 7.33105C9.95255 7.33105 6.96837 10.3152 6.96837 13.9959C6.96837 17.6765 9.95255 20.6607 13.6332 20.6607C17.3139 20.6607 20.298 17.6765 20.298 13.9959C20.298 10.3152 17.3139 7.33105 13.6332 7.33105ZM13.6332 18.1614C11.3372 18.1614 9.46768 16.2919 9.46768 13.9959C9.46768 11.6982 11.3372 9.83037 13.6332 9.83037C15.9292 9.83037 17.7987 11.6982 17.7987 13.9959C17.7987 16.2919 15.9292 18.1614 13.6332 18.1614Z" fill="white"/>
<path d="M21.1311 7.33125C21.5912 7.33125 21.9642 6.95825 21.9642 6.49814C21.9642 6.03803 21.5912 5.66504 21.1311 5.66504C20.671 5.66504 20.298 6.03803 20.298 6.49814C20.298 6.95825 20.671 7.33125 21.1311 7.33125Z" fill="white"/>
</g>
</g>
<defs>
<clipPath id="clip0">
<rect width="26.6593" height="26.6593" fill="white" transform="translate(0.303528 0.666504)"/>
</clipPath>
<clipPath id="clip1">
<rect width="26.6593" height="26.6593" fill="white" transform="translate(0.303528 0.666504)"/>
</clipPath>
</defs>
</svg>
