<svg width="31" height="30" viewBox="0 0 31 30" fill="none" xmlns="http://www.w3.org/2000/svg">
<path d="M1.58972 14.9235C4.40519 13.3727 7.54803 12.0783 10.4845 10.7774C15.5365 8.64647 20.6085 6.55251 25.7317 4.60306C26.7285 4.2709 28.5195 3.94606 28.6951 5.42324C28.5989 7.51419 28.2034 9.59289 27.932 11.6716C27.2433 16.2429 26.4473 20.7985 25.6711 25.3547C25.4037 26.8723 23.5025 27.658 22.286 26.6867C19.3625 24.712 16.4166 22.7565 13.5304 20.736C12.585 19.7754 13.4617 18.3958 14.3061 17.7098C16.7139 15.3369 19.2675 13.3208 21.5495 10.8252C22.1651 9.3387 20.3463 10.5915 19.7464 10.9754C16.45 13.2469 13.2343 15.6572 9.7589 17.6536C7.98366 18.6308 5.91459 17.7957 4.14016 17.2504C2.54915 16.5917 0.217741 15.9281 1.58956 14.9236L1.58972 14.9235Z" fill="white"/>
</svg>
