<svg width="28" height="28" viewBox="0 0 28 28" fill="none" xmlns="http://www.w3.org/2000/svg">
<g clip-path="url(#clip0)">
<path d="M27.4066 19.0404C27.3349 18.9221 26.8917 17.9726 24.7588 16.021C22.5259 13.9775 22.8258 14.3093 25.5153 10.7758C27.1533 8.62376 27.8082 7.30957 27.6032 6.74775C27.4083 6.21221 26.2035 6.35349 26.2035 6.35349L22.1976 6.37649C22.1976 6.37649 21.901 6.33706 21.6794 6.46684C21.4645 6.59497 21.3261 6.89067 21.3261 6.89067C21.3261 6.89067 20.6913 8.55641 19.8448 9.97246C18.0601 12.9606 17.3453 13.1183 17.0537 12.9327C16.3755 12.5006 16.5454 11.1947 16.5454 10.2682C16.5454 7.37199 16.9904 6.16457 15.6773 5.85245C15.2407 5.74896 14.9208 5.67996 13.806 5.66846C12.3763 5.65368 11.1649 5.67339 10.48 6.00358C10.0234 6.22371 9.67183 6.71489 9.88679 6.74282C10.1517 6.77732 10.7516 6.90217 11.0699 7.32928C11.4815 7.8796 11.4665 9.11823 11.4665 9.11823C11.4665 9.11823 11.7031 12.5269 10.9149 12.9508C10.3734 13.2415 9.63184 12.6485 8.04049 9.93632C7.22566 8.5482 6.60912 7.01223 6.60912 7.01223C6.60912 7.01223 6.49081 6.72639 6.27918 6.57362C6.02257 6.38799 5.66264 6.32885 5.66264 6.32885L1.85341 6.35185C1.85341 6.35185 1.28186 6.36827 1.0719 6.61304C0.885271 6.83153 1.0569 7.28164 1.0569 7.28164C1.0569 7.28164 4.03963 14.1598 7.41562 17.6277C10.5133 20.8064 14.0293 20.5977 14.0293 20.5977H15.6223C15.6223 20.5977 16.1039 20.5452 16.3488 20.284C16.5754 20.0441 16.5671 19.594 16.5671 19.594C16.5671 19.594 16.5354 17.4864 17.5286 17.1759C18.5067 16.8703 19.7631 19.2129 21.0945 20.1148C22.101 20.7965 22.8658 20.647 22.8658 20.647L26.4268 20.5977C26.4268 20.5977 28.2897 20.4844 27.4066 19.0404Z" fill="white"/>
</g>
<defs>
<clipPath id="clip0">
<rect width="26.6593" height="26.6593" fill="white" transform="translate(0.984863 0.666504)"/>
</clipPath>
</defs>
</svg>
