<svg width="27" height="28" viewBox="0 0 27 28" fill="none" xmlns="http://www.w3.org/2000/svg">
<g clip-path="url(#clip0)">
<path d="M25.5263 7.43122C24.8032 6.14491 24.0184 5.90831 22.4205 5.81833C20.8243 5.71003 16.8104 5.66504 13.333 5.66504C9.84896 5.66504 5.8334 5.71003 4.23883 5.81666C2.64427 5.90831 1.85782 6.14324 1.12802 7.43122C0.383228 8.71587 0 10.9286 0 14.8242C0 14.8275 0 14.8292 0 14.8292C0 14.8325 0 14.8342 0 14.8342V14.8375C0 18.7164 0.383228 20.9458 1.12802 22.2172C1.85782 23.5035 2.64261 23.7367 4.23717 23.845C5.8334 23.9383 9.84896 23.9933 13.333 23.9933C16.8104 23.9933 20.8243 23.9383 22.4222 23.8467C24.0201 23.7384 24.8048 23.5051 25.528 22.2188C26.2794 20.9475 26.6593 18.7181 26.6593 14.8392C26.6593 14.8392 26.6593 14.8342 26.6593 14.8309C26.6593 14.8309 26.6593 14.8275 26.6593 14.8259C26.6593 10.9286 26.2794 8.71587 25.5263 7.43122ZM9.99725 19.8278V9.83056L18.3283 14.8292L9.99725 19.8278Z" fill="white"/>
</g>
<defs>
<clipPath id="clip0">
<rect width="26.6593" height="26.6593" fill="white" transform="translate(0 0.666504)"/>
</clipPath>
</defs>
</svg>
