<svg width="27" height="28" fill="none" xmlns="http://www.w3.org/2000/svg"><g clip-path="url(#clip0)"><g clip-path="url(#clip1)" fill="#fff"><path d="M18.632.667H8.635c-4.6 0-8.331 3.73-8.331 8.33v9.998c0 4.6 3.73 8.33 8.33 8.33h9.998c4.6 0 8.33-3.73 8.33-8.33V8.998c0-4.6-3.73-8.331-8.33-8.331zm5.831 18.328a5.838 5.838 0 01-5.831 5.831H8.635a5.838 5.838 0 01-5.832-5.831V8.998a5.838 5.838 0 015.832-5.832h9.997a5.838 5.838 0 015.831 5.832v9.997z"/><path d="M13.633 7.331a6.665 6.665 0 100 13.33 6.665 6.665 0 000-13.33zm0 10.83a4.171 4.171 0 01-4.165-4.165 4.17 4.17 0 014.165-4.166 4.17 4.17 0 014.166 4.166 4.171 4.171 0 01-4.166 4.165zm7.498-10.83a.833.833 0 100-1.666.833.833 0 000 1.666z"/></g></g><defs><clipPath id="clip0"><path fill="#fff" transform="translate(.304 .667)" d="M0 0h26.659v26.659H0z"/></clipPath><clipPath id="clip1"><path fill="#fff" transform="translate(.304 .667)" d="M0 0h26.659v26.659H0z"/></clipPath></defs></svg>