<svg width="655" height="208" fill="none" xmlns="http://www.w3.org/2000/svg"><g filter="url(#filter0_d)"><path d="M216.184 5l-7.446 42.487h-13.595l-2.848 11.17h6.79c15.622 0 27.886 4.672 36.793 14.016 8.906 9.344 11.826 22.557 8.76 39.64-2.92 16.06-10.293 28.324-22.12 36.793C210.838 157.574 195.63 163 179.277 163h-25.469L160 120.5c13.969 0 25.506-1.179 25.506-1.179s14.674-3.504 15.988-10.512c.73-3.504 0-6.278-2.19-8.323-2.044-2.044-5.037-3.066-8.98-3.066h-50.371L162.511 5h53.673z" fill="url(#paint0_linear)"/></g><g filter="url(#filter1_d)"><mask id="a" maskUnits="userSpaceOnUse" x="245" y="2" width="149" height="166"><path d="M245 52h149v116H245V52z" fill="url(#paint1_linear)"/><path d="M335 2h59v153h-84L335 2z" fill="url(#paint2_linear)"/></mask><g mask="url(#a)"><path d="M302.29 162c-19.742 0-34.119-7.507-43.132-22.52-9.013-15.014-11.373-34.389-7.081-58.125 4.291-24.165 12.875-42.896 25.75-56.194C290.845 11.721 307.511 5 327.825 5c19.599 0 33.905 7.507 42.917 22.52 9.013 14.871 11.445 34.246 7.296 58.125-4.291 24.308-12.946 43.11-25.964 56.408C339.198 155.351 322.604 162 302.29 162zm33.26-78.5c4.006-24.594-.643-36.89-13.948-36.89-13.876 0-22.817 12.296-26.823 36.89-4.435 24.594.143 36.891 13.734 36.891 13.59 0 22.603-12.297 27.037-36.891z" fill="url(#paint3_linear)"/></g></g><g filter="url(#filter2_d)"><path d="M250.044 18.169c-.727 3.67-2.643 6.454-5.749 8.35 3.187 2.219 4.458 5.426 3.812 9.621-.524 3.59-2.299 6.475-5.325 8.653-2.985 2.138-6.817 3.207-11.496 3.207h-17.911l7.443-42.356h16.216c4.599 0 8.088 1.19 10.468 3.57 2.34 2.34 3.187 5.325 2.542 8.955zm-14.946-2.118h-3.994l-1.028 5.688 4.659-.06c1.775-.242 2.803-1.17 3.086-2.784.161-.968-.02-1.674-.545-2.118-.524-.484-1.25-.726-2.178-.726zm1.21 18.516c.282-1.735-.403-2.723-2.057-2.965l-5.87-.06-1.089 6.05h5.083c1.008 0 1.856-.262 2.541-.786.726-.565 1.19-1.311 1.392-2.239zm40.816-28.923h14.159l-17.971 24.022L270.105 48h-12.102l3.207-18.274-9.5-24.082h12.707l4.115 12.828 8.592-12.828zM298.986 48h-12.102l7.443-42.356h9.681l9.742 20.33 3.57-20.33h12.102L321.979 48h-9.681l-9.742-20.331L298.986 48z" fill="url(#paint4_linear)"/></g><g filter="url(#filter3_d)"><path d="M148.104 163H37l5.49-32.218 61.04-54.506c10.101-8.826 15.517-15.593 16.249-20.301.293-2.354-.293-4.266-1.757-5.738-1.317-1.618-3.293-2.427-5.928-2.427-7.612 0-14.712 5.443-21.299 16.33l-36.01-21.847c7.027-12.063 16.03-21.258 27.008-27.584C92.918 8.236 104.848 5 117.583 5c14.785 0 26.934 5.002 36.449 15.006 9.369 9.856 12.735 22.508 10.1 37.955-1.463 8.974-4.464 16.697-9.002 23.17-4.245 6.18-11.125 13.388-20.64 21.626l-20.201 17.433h41.28L148.104 163z" fill="url(#paint5_linear)"/></g><path d="M14.658 63.699H41.78l-4.743 26.963h3.997l-3.09 17.479H27.286l1.28-7.141H12.633l-1.28 7.141H.697l3.038-17.479h3.943c1.99-2.735 3.41-6.5 4.263-11.297L14.658 63.7zm4.263 26.963h7.46l3.037-17.158H23.61l-1.066 5.968c-.853 4.69-2.06 8.42-3.623 11.19zm41.794 11.191c-4.015 0-7.479-.995-10.392-2.984-2.806-1.99-4.795-4.494-5.968-7.514-1.136-3.02-1.438-6.235-.906-9.645.853-5.151 3.287-9.574 7.3-13.269 4.05-3.73 9.024-5.595 14.921-5.595 2.984 0 5.684.569 8.1 1.705 2.451 1.102 4.387 2.63 5.808 4.583 2.949 4.014 4.015 8.562 3.198 13.642-.817 5.186-3.215 9.663-7.194 13.428-3.908 3.766-8.864 5.649-14.867 5.649zM55.439 88.85c1.421 1.706 3.446 2.558 6.075 2.558s4.956-.852 6.98-2.558c2.025-1.74 3.269-3.907 3.73-6.5.462-2.594-.017-4.743-1.438-6.448-1.421-1.741-3.446-2.612-6.075-2.612-2.664 0-4.991.87-6.98 2.612-2.026 1.705-3.269 3.854-3.73 6.447-.462 2.594.017 4.76 1.438 6.501z" fill="url(#paint6_linear)"/><path d="M434.585 59.914l2.345-13.215h10.657L441.033 84h-10.658l2.398-13.748h-9.059L421.316 84h-10.657l6.554-37.301h10.658l-2.345 13.215h9.059zm31.116 24.939c-4.015 0-7.478-.995-10.391-2.984-2.807-1.99-4.796-4.494-5.968-7.514-1.137-3.02-1.439-6.235-.906-9.645.852-5.151 3.286-9.574 7.3-13.269 4.05-3.73 9.023-5.595 14.921-5.595 2.984 0 5.684.569 8.099 1.705 2.451 1.102 4.388 2.63 5.809 4.583 2.948 4.014 4.014 8.562 3.197 13.642-.817 5.186-3.215 9.663-7.194 13.428-3.908 3.766-8.863 5.649-14.867 5.649zm-5.276-13.003c1.421 1.706 3.446 2.558 6.075 2.558s4.956-.852 6.981-2.558c2.025-1.74 3.268-3.907 3.73-6.5.462-2.594-.018-4.743-1.439-6.448-1.421-1.741-3.446-2.611-6.075-2.611-2.664 0-4.991.87-6.98 2.61-2.025 1.706-3.269 3.855-3.73 6.448-.462 2.594.017 4.76 1.438 6.501zm60.428-14.12c-.64 3.232-2.327 5.683-5.062 7.353 2.806 1.954 3.925 4.778 3.357 8.473-.462 3.161-2.025 5.701-4.69 7.62C511.83 83.059 508.455 84 504.334 84h-15.773l6.554-37.301h14.281c4.05 0 7.123 1.048 9.219 3.144 2.06 2.06 2.806 4.689 2.238 7.886zm-13.162-1.866h-3.517l-.906 5.01 4.103-.054c1.563-.213 2.469-1.03 2.718-2.451.142-.853-.018-1.475-.48-1.865-.462-.427-1.101-.64-1.918-.64zm1.066 16.306c.248-1.527-.356-2.398-1.812-2.61l-5.169-.054-.959 5.329h4.476c.888 0 1.634-.231 2.238-.693.64-.498 1.048-1.155 1.226-1.972zM535.745 84h-14.92l6.554-37.301h10.657l-1.865 10.55h4.317c3.588 0 6.501 1.315 8.739 3.944 2.273 2.593 3.055 5.915 2.345 9.965-.711 4.05-2.469 7.211-5.276 9.485C543.525 82.88 540.008 84 535.745 84zm27.177.053h-10.658l6.555-37.301h10.657l-6.554 37.301zM534.36 67.587l-1.066 6.075h4.263a3.39 3.39 0 002.238-.8c.675-.567 1.083-1.313 1.226-2.237.177-.924.035-1.652-.427-2.185-.462-.568-1.119-.853-1.971-.853h-4.263zM602.496 46.7h11.19L607.132 84h-10.658l3.144-17.958-10.444 13.748h-.959l-6.075-14.44L578.889 84h-10.657l6.554-37.301h10.658l5.595 15.293L602.496 46.7z" fill="url(#paint7_linear)"/><path d="M410.846 127.944h-8.526l6.554-37.3h10.658l-2.878 16.518 14.601-16.519h8.526l-6.555 37.301h-10.657l2.878-16.519-14.601 16.519zm34.247-37.3h22.914l-1.812 10.337h-12.256l-4.743 26.963h-10.657l6.554-37.3zm25.603 0h14.654c3.588 0 6.537 1.278 8.846 3.836 2.273 2.486 3.126 5.844 2.557 10.071-.603 3.943-2.291 7.07-5.062 9.379-2.806 2.309-6.394 3.463-10.764 3.463h-4.263l-1.865 10.551h-10.657l6.554-37.3zm15.507 13.374c.177-.923 0-1.652-.533-2.185-.533-.568-1.244-.852-2.132-.852h-3.996l-1.066 6.075h4.263a3.39 3.39 0 002.238-.8c.675-.568 1.083-1.314 1.226-2.238zm29.494 24.779c-4.015 0-7.478-.995-10.391-2.984-2.807-1.99-4.796-4.494-5.968-7.514-1.137-3.019-1.439-6.234-.906-9.645.852-5.151 3.286-9.574 7.3-13.268 4.05-3.73 9.023-5.596 14.921-5.596 2.984 0 5.684.569 8.099 1.706 2.451 1.101 4.388 2.629 5.809 4.582 2.948 4.015 4.014 8.562 3.197 13.642-.817 5.187-3.215 9.663-7.194 13.428-3.908 3.766-8.863 5.649-14.867 5.649zm-5.276-13.002c1.421 1.705 3.446 2.558 6.075 2.558s4.956-.853 6.981-2.558c2.025-1.741 3.268-3.908 3.73-6.501.462-2.594-.018-4.743-1.439-6.448-1.421-1.741-3.446-2.611-6.075-2.611-2.664 0-4.991.87-6.98 2.611-2.025 1.705-3.269 3.854-3.73 6.448-.462 2.593.017 4.76 1.438 6.501zm53.714-25.152h12.362l-14.76 18.704 8.579 18.597h-11.137l-7.141-16.039-2.824 16.039h-10.657l6.554-37.3h10.658l-2.505 14.387 10.871-14.388zm42.95 37.301h-11.137l-.426-4.796h-10.764l-2.132 4.796H570.85l18.437-37.3h12.47l5.328 37.3zm-13.428-24.778l-5.116 11.456h6.182l-1.066-11.456zm49.832-12.523h11.19l-6.554 37.301h-10.658l3.144-17.958-10.444 13.749h-.959l-6.075-14.441-3.25 18.65h-10.658l6.554-37.3h10.658l5.595 15.293 11.457-15.294z" fill="url(#paint8_linear)"/><defs><linearGradient id="paint0_linear" x1="142.37" y1="72.304" x2="142.37" y2="126.304" gradientUnits="userSpaceOnUse"><stop stop-color="#fff"/><stop offset="1" stop-color="#D8D8D8"/></linearGradient><linearGradient id="paint1_linear" x1="265.19" y1="73.249" x2="265.19" y2="130.415" gradientUnits="userSpaceOnUse"><stop stop-color="#fff"/><stop offset="1" stop-color="#D8D8D8"/></linearGradient><linearGradient id="paint2_linear" x1="265.19" y1="73.249" x2="265.19" y2="130.415" gradientUnits="userSpaceOnUse"><stop stop-color="#fff"/><stop offset="1" stop-color="#D8D8D8"/></linearGradient><linearGradient id="paint3_linear" x1="267.615" y1="72.386" x2="267.615" y2="126.452" gradientUnits="userSpaceOnUse"><stop stop-color="#fff"/><stop offset="1" stop-color="#D8D8D8"/></linearGradient><linearGradient id="paint4_linear" x1="270.33" y1="24" x2="270.33" y2="38.643" gradientUnits="userSpaceOnUse"><stop stop-color="#fff"/><stop offset="1" stop-color="#D8D8D8"/></linearGradient><linearGradient id="paint5_linear" x1="54.344" y1="72.816" x2="54.344" y2="127.226" gradientUnits="userSpaceOnUse"><stop stop-color="#fff"/><stop offset="1" stop-color="#D8D8D8"/></linearGradient><linearGradient id="paint6_linear" x1="17.118" y1="74" x2="120.903" y2="81.016" gradientUnits="userSpaceOnUse"><stop stop-color="#0E3"/><stop offset="1" stop-color="#009A17"/></linearGradient><linearGradient id="paint7_linear" x1="433.398" y1="57" x2="612.933" y2="82.903" gradientUnits="userSpaceOnUse"><stop stop-color="#0E3"/><stop offset="1" stop-color="#009A17"/></linearGradient><linearGradient id="paint8_linear" x1="430.735" y1="100.944" x2="651.6" y2="141.699" gradientUnits="userSpaceOnUse"><stop stop-color="#0E3"/><stop offset="1" stop-color="#009A17"/></linearGradient><filter id="filter0_d" x="115.828" y=".979" width="154.114" height="206.251" filterUnits="userSpaceOnUse" color-interpolation-filters="sRGB"><feFlood flood-opacity="0" result="BackgroundImageFix"/><feColorMatrix in="SourceAlpha" values="0 0 0 0 0 0 0 0 0 0 0 0 0 0 0 0 0 0 127 0"/><feOffset dy="20.105"/><feGaussianBlur stdDeviation="12.063"/><feColorMatrix values="0 0 0 0 0 0 0 0 0 0 0 0 0 0 0 0 0 0 0.6 0"/><feBlend in2="BackgroundImageFix" result="effect1_dropShadow"/><feBlend in="SourceGraphic" in2="effect1_dropShadow" result="shape"/></filter><filter id="filter1_d" x="225.874" y=".979" width="178.251" height="205.251" filterUnits="userSpaceOnUse" color-interpolation-filters="sRGB"><feFlood flood-opacity="0" result="BackgroundImageFix"/><feColorMatrix in="SourceAlpha" values="0 0 0 0 0 0 0 0 0 0 0 0 0 0 0 0 0 0 127 0"/><feOffset dy="20.105"/><feGaussianBlur stdDeviation="12.063"/><feColorMatrix values="0 0 0 0 0 0 0 0 0 0 0 0 0 0 0 0 0 0 0.6 0"/><feBlend in2="BackgroundImageFix" result="effect1_dropShadow"/><feBlend in="SourceGraphic" in2="effect1_dropShadow" result="shape"/></filter><filter id="filter2_d" x="206.709" y="4.533" width="129.378" height="55.688" filterUnits="userSpaceOnUse" color-interpolation-filters="sRGB"><feFlood flood-opacity="0" result="BackgroundImageFix"/><feColorMatrix in="SourceAlpha" values="0 0 0 0 0 0 0 0 0 0 0 0 0 0 0 0 0 0 127 0"/><feOffset dy="5.555"/><feGaussianBlur stdDeviation="3.333"/><feColorMatrix values="0 0 0 0 0 0 0 0 0 0 0 0 0 0 0 0 0 0 0.6 0"/><feBlend in2="BackgroundImageFix" result="effect1_dropShadow"/><feBlend in="SourceGraphic" in2="effect1_dropShadow" result="shape"/></filter><filter id="filter3_d" x="12.874" y=".979" width="176.251" height="206.251" filterUnits="userSpaceOnUse" color-interpolation-filters="sRGB"><feFlood flood-opacity="0" result="BackgroundImageFix"/><feColorMatrix in="SourceAlpha" values="0 0 0 0 0 0 0 0 0 0 0 0 0 0 0 0 0 0 127 0"/><feOffset dy="20.105"/><feGaussianBlur stdDeviation="12.063"/><feColorMatrix values="0 0 0 0 0 0 0 0 0 0 0 0 0 0 0 0 0 0 0.6 0"/><feBlend in2="BackgroundImageFix" result="effect1_dropShadow"/><feBlend in="SourceGraphic" in2="effect1_dropShadow" result="shape"/></filter></defs></svg>