<svg width="26" height="26" fill="none" xmlns="http://www.w3.org/2000/svg"><path fill-rule="evenodd" clip-rule="evenodd" d="M12.627 25.254c6.974 0 12.627-5.653 12.627-12.627C25.254 5.653 19.601 0 12.627 0 5.653 0 0 5.653 0 12.627c0 6.974 5.653 12.627 12.627 12.627zM16.14 6.835h-4.499l-.683 7.198h3l2.182-7.198zm-5.832 11.297c.389.356.889.533 1.5.533.655 0 1.205-.205 1.65-.616.444-.422.666-.939.666-1.55 0-.51-.194-.938-.583-1.283-.39-.344-.889-.516-1.5-.516-.666 0-1.222.2-1.666.6-.433.4-.65.91-.65 1.532 0 .511.194.945.583 1.3z" fill="#fff"/></svg>