<svg width="547" height="207" fill="none" xmlns="http://www.w3.org/2000/svg"><g filter="url(#filter0_d)"><path d="M25 20.55L70.991 5h37.231L81.284 158.304h-43.8L55.88 52.962l-27.157 6.351L25 20.55z" fill="url(#paint0_linear)"/><path d="M191.184 5l-7.446 42.487h-13.595l-2.848 11.17h6.79c15.622 0 27.886 4.672 36.793 14.016 8.906 9.344 11.826 22.557 8.76 39.64-2.92 16.06-10.293 28.324-22.12 36.793-11.68 8.468-25.696 12.702-42.049 12.702-14.162 0-25.916-3.066-35.26-9.198-9.198-6.278-15.549-15.331-19.053-27.157l40.516-21.243c2.774 10.074 9.052 15.111 18.834 15.111 9.345 0 14.674-3.504 15.988-10.512.73-3.504 0-6.278-2.19-8.323-2.044-2.044-5.037-3.066-8.98-3.066h-50.371L137.511 5h53.673z" fill="url(#paint1_linear)"/></g><g filter="url(#filter1_d)"><path d="M223.728 17.6c-.726 3.671-2.643 6.455-5.749 8.35 3.187 2.22 4.458 5.427 3.812 9.622-.524 3.59-2.299 6.474-5.324 8.653-2.985 2.138-6.818 3.207-11.497 3.207h-17.911l7.443-42.357h16.216c4.599 0 8.088 1.19 10.468 3.57 2.34 2.34 3.187 5.325 2.542 8.956zm-14.946-2.117h-3.994l-1.028 5.688 4.659-.06c1.775-.243 2.804-1.17 3.086-2.784.161-.968-.02-1.674-.545-2.118-.524-.484-1.25-.726-2.178-.726zm1.21 18.516c.283-1.735-.403-2.723-2.057-2.965l-5.87-.06-1.089 6.05h5.083c1.009 0 1.856-.262 2.541-.787.727-.564 1.19-1.31 1.392-2.238zm40.816-28.924h14.159l-17.971 24.022-3.207 18.335h-12.101l3.206-18.274-9.499-24.083h12.706l4.115 12.828 8.592-12.828zm21.862 42.357h-12.102l7.443-42.357h9.681l9.742 20.331 3.57-20.33h12.102l-7.442 42.356h-9.682L276.24 27.1l-3.57 20.33z" fill="url(#paint2_linear)"/></g><path d="M263.074 73.421l2.812-15.847h12.78l-7.86 44.73h-12.78l2.876-16.486h-10.863l-2.876 16.486h-12.78l7.86-44.73h12.78l-2.812 15.847h10.863zm37.313 29.905c-4.814 0-8.967-1.192-12.461-3.578-3.365-2.386-5.751-5.389-7.156-9.01-1.364-3.62-1.726-7.476-1.087-11.566 1.023-6.177 3.941-11.48 8.755-15.91 4.856-4.474 10.82-6.71 17.892-6.71 3.578 0 6.816.681 9.712 2.044 2.94 1.321 5.261 3.153 6.965 5.496 3.536 4.814 4.814 10.266 3.834 16.358-.979 6.22-3.855 11.587-8.626 16.103-4.686 4.516-10.629 6.773-17.828 6.773zm-6.326-15.591c1.704 2.045 4.132 3.067 7.284 3.067 3.153 0 5.943-1.022 8.371-3.067 2.429-2.088 3.92-4.686 4.473-7.796.554-3.11-.021-5.687-1.725-7.732-1.704-2.087-4.132-3.131-7.285-3.131-3.195 0-5.985 1.044-8.37 3.131-2.429 2.045-3.92 4.622-4.473 7.732-.554 3.11.021 5.708 1.725 7.796zM366.523 70.8c-.767 3.877-2.791 6.816-6.071 8.819 3.366 2.343 4.708 5.73 4.026 10.16-.554 3.79-2.428 6.837-5.623 9.137-3.153 2.258-7.2 3.387-12.141 3.387h-18.915l7.86-44.73h17.125c4.857 0 8.542 1.257 11.055 3.77 2.471 2.47 3.365 5.623 2.684 9.457zm-15.783-2.236h-4.218l-1.086 6.006 4.92-.064c1.875-.255 2.961-1.235 3.259-2.939.17-1.022-.021-1.768-.575-2.236-.554-.512-1.321-.767-2.3-.767zm1.278 19.553c.298-1.832-.426-2.875-2.173-3.13l-6.198-.065-1.151 6.39h5.368c1.065 0 1.96-.277 2.684-.83.767-.597 1.257-1.385 1.47-2.365zm32.363 14.186h-17.892l7.86-44.73h12.779l-2.236 12.652h5.176c4.302 0 7.796 1.576 10.479 4.729 2.727 3.11 3.664 7.093 2.812 11.95-.852 4.855-2.961 8.647-6.326 11.373-3.323 2.684-7.54 4.026-12.652 4.026zm32.589.064h-12.78l7.859-44.73h12.78l-7.859 44.73zm-34.251-19.745l-1.278 7.284h5.112c1.023 0 1.917-.32 2.684-.958.81-.682 1.299-1.576 1.47-2.684.213-1.108.042-1.98-.511-2.62-.554-.681-1.342-1.022-2.365-1.022h-5.112zm81.706-25.049h13.419l-7.86 44.73h-12.78l3.77-21.534-12.524 16.486h-1.15l-7.285-17.317-3.898 22.365h-12.78l7.86-44.73h12.78l6.709 18.34 13.739-18.34z" fill="url(#paint3_linear)"/><path d="M254.607 155h-10.224l7.86-44.73h12.78l-3.451 19.809 17.509-19.809h10.224l-7.86 44.73h-12.78l3.451-19.809L254.607 155zm41.068-44.73h27.477l-2.173 12.397h-14.697L300.595 155h-12.78l7.86-44.73zm30.702 0h17.572c4.303 0 7.839 1.534 10.608 4.601 2.726 2.982 3.749 7.008 3.067 12.077-.724 4.729-2.748 8.477-6.071 11.246-3.365 2.769-7.668 4.154-12.907 4.154h-5.112L331.297 155h-12.78l7.86-44.73zm18.595 16.039c.213-1.108 0-1.981-.639-2.62-.639-.682-1.491-1.022-2.556-1.022h-4.793l-1.278 7.284h5.112c1.023 0 1.917-.319 2.684-.958.809-.682 1.299-1.576 1.47-2.684zm35.368 29.713c-4.814 0-8.967-1.192-12.461-3.578-3.365-2.386-5.751-5.389-7.156-9.01-1.364-3.621-1.726-7.476-1.087-11.566 1.023-6.177 3.941-11.48 8.755-15.911 4.856-4.473 10.82-6.709 17.891-6.709 3.579 0 6.816.681 9.713 2.045 2.94 1.32 5.261 3.152 6.965 5.495 3.536 4.814 4.814 10.266 3.834 16.358-.979 6.22-3.855 11.587-8.626 16.103-4.686 4.516-10.629 6.773-17.828 6.773zm-6.326-15.591c1.704 2.045 4.132 3.067 7.284 3.067 3.153 0 5.943-1.022 8.371-3.067 2.428-2.088 3.919-4.686 4.473-7.796.554-3.11-.021-5.687-1.725-7.732-1.704-2.087-4.132-3.131-7.285-3.131-3.195 0-5.985 1.044-8.371 3.131-2.428 2.045-3.919 4.622-4.473 7.732-.553 3.11.022 5.708 1.726 7.796zm64.41-30.161h14.825l-17.7 22.429L445.837 155h-13.355l-8.563-19.234L420.532 155h-12.78l7.86-44.73h12.78l-3.003 17.253 13.035-17.253zM489.929 155h-13.356l-.511-5.751h-12.908L460.598 155h-14.121l22.109-44.73h14.953l6.39 44.73zm-16.103-29.713l-6.135 13.738h7.413l-1.278-13.738zm59.756-15.017h13.419l-7.86 44.73h-12.78l3.771-21.534-12.525 16.486h-1.15l-7.285-17.317L505.274 155h-12.78l7.86-44.73h12.78l6.71 18.339 13.738-18.339z" fill="url(#paint4_linear)"/><defs><linearGradient id="paint0_linear" x1="117.37" y1="72.304" x2="117.37" y2="126.304" gradientUnits="userSpaceOnUse"><stop stop-color="#fff"/><stop offset="1" stop-color="#D8D8D8"/></linearGradient><linearGradient id="paint1_linear" x1="117.37" y1="72.304" x2="117.37" y2="126.304" gradientUnits="userSpaceOnUse"><stop stop-color="#fff"/><stop offset="1" stop-color="#D8D8D8"/></linearGradient><linearGradient id="paint2_linear" x1="244.014" y1="23.432" x2="244.014" y2="38.075" gradientUnits="userSpaceOnUse"><stop stop-color="#fff"/><stop offset="1" stop-color="#D8D8D8"/></linearGradient><linearGradient id="paint3_linear" x1="261.651" y1="70.304" x2="476.941" y2="101.365" gradientUnits="userSpaceOnUse"><stop stop-color="#0E3"/><stop offset="1" stop-color="#009A17"/></linearGradient><linearGradient id="paint4_linear" x1="278.458" y1="123" x2="543.308" y2="171.871" gradientUnits="userSpaceOnUse"><stop stop-color="#0E3"/><stop offset="1" stop-color="#009A17"/></linearGradient><filter id="filter0_d" x=".874" y=".979" width="244.067" height="205.059" filterUnits="userSpaceOnUse" color-interpolation-filters="sRGB"><feFlood flood-opacity="0" result="BackgroundImageFix"/><feColorMatrix in="SourceAlpha" values="0 0 0 0 0 0 0 0 0 0 0 0 0 0 0 0 0 0 127 0"/><feOffset dy="20.105"/><feGaussianBlur stdDeviation="12.063"/><feColorMatrix values="0 0 0 0 0 0 0 0 0 0 0 0 0 0 0 0 0 0 0.6 0"/><feBlend in2="BackgroundImageFix" result="effect1_dropShadow"/><feBlend in="SourceGraphic" in2="effect1_dropShadow" result="shape"/></filter><filter id="filter1_d" x="180.394" y="3.964" width="129.378" height="55.688" filterUnits="userSpaceOnUse" color-interpolation-filters="sRGB"><feFlood flood-opacity="0" result="BackgroundImageFix"/><feColorMatrix in="SourceAlpha" values="0 0 0 0 0 0 0 0 0 0 0 0 0 0 0 0 0 0 127 0"/><feOffset dy="5.555"/><feGaussianBlur stdDeviation="3.333"/><feColorMatrix values="0 0 0 0 0 0 0 0 0 0 0 0 0 0 0 0 0 0 0.6 0"/><feBlend in2="BackgroundImageFix" result="effect1_dropShadow"/><feBlend in="SourceGraphic" in2="effect1_dropShadow" result="shape"/></filter></defs></svg>