<svg width="295" height="93" fill="none" xmlns="http://www.w3.org/2000/svg"><g filter="url(#filter0_d)"><path d="M12.537 71.343h2.145c1.3 0 2.294.423 2.983 1.267.689.832.93 1.898.722 3.198-.235 1.339-.8 2.372-1.697 3.1-.897.728-2.073 1.092-3.529 1.092H7.117l2.398-13.648h9.359l-.663 3.782h-5.46l-.214 1.21zm1.268 3.393h-1.872l-.293 1.754h1.853a.99.99 0 00.663-.233 1.05 1.05 0 00.37-.644c.052-.273.007-.487-.136-.643-.13-.156-.325-.234-.585-.234zm11.51-3.178l2.71-5.206h4.29l-5.48 9.437c-.87 1.494-1.89 2.567-3.06 3.217-1.144.636-2.58.968-4.31.994l.644-3.626c1.027-.026 1.924-.338 2.69-.936l-2.963-9.086h3.9l1.579 5.206zm14.942-5.206h4.524l-5.401 6.843L42.519 80h-4.075l-2.613-5.869L34.798 80h-3.9l2.399-13.648h3.9l-.917 5.264 3.977-5.264zm15.574 0h4.094L57.527 80h-3.9l1.15-6.57-3.82 5.03h-.352l-2.222-5.284L47.193 80h-3.9l2.4-13.648h3.899l2.047 5.596 4.192-5.596zm14.917 0l-.624 3.548h-4.972l-.253 1.482h4.484l-.624 3.51h-4.484l-.273 1.52h5.07L68.446 80h-8.969l2.398-13.648h8.872zm8.618 0h4.524l-5.4 6.843L81.627 80h-4.075l-2.612-5.869L73.906 80h-3.9l2.399-13.648h3.9l-.917 5.264 3.978-5.264zm14.307 0l-.624 3.548h-4.972l-.254 1.482h4.485l-.624 3.51h-4.485l-.272 1.52h5.069L91.372 80h-8.969l2.398-13.648h8.872zm1.658 0h5.361c1.313 0 2.392.468 3.237 1.404.832.91 1.144 2.138.936 3.685-.221 1.442-.839 2.586-1.852 3.431-1.027.845-2.34 1.267-3.939 1.267h-1.56L96.832 80h-3.9l2.399-13.648zm5.673 4.894c.065-.338 0-.605-.195-.8-.195-.208-.455-.312-.779-.312h-1.463l-.39 2.223h1.56c.312 0 .585-.097.819-.293.247-.207.396-.48.448-.818zm10.617 9.066c-2.119 0-3.763-.695-4.933-2.086-1.157-1.391-1.567-3.14-1.229-5.245.325-2.015 1.242-3.679 2.75-4.991 1.507-1.3 3.269-1.95 5.283-1.95 2.691 0 4.608 1.118 5.752 3.353l-3.568 1.892c-.52-.95-1.365-1.424-2.535-1.424-.935 0-1.761.312-2.476.936-.702.611-1.144 1.404-1.326 2.379-.156.923 0 1.71.468 2.36.468.636 1.17.954 2.106.954 1.079 0 2.008-.506 2.788-1.52l3.237 2.047a7.186 7.186 0 01-2.71 2.437c-1.092.572-2.295.858-3.607.858zm16.127-13.96h4.524l-5.401 6.843L130.01 80h-4.075l-2.613-5.869L122.289 80h-3.899l2.398-13.648h3.899l-.916 5.264 3.977-5.264zM143.464 80h-4.075l-.156-1.755h-3.939l-.78 1.755h-4.309l6.746-13.648h4.563L143.464 80zm-4.914-9.066l-1.872 4.192h2.262l-.39-4.192zm13.369-4.602h5.46l-2.418 13.649h-3.9l.761-4.29h-.332l-3.197 4.29h-4.446l3.822-4.953a3.5 3.5 0 01-1.54-1.833c-.299-.805-.351-1.65-.156-2.534.247-1.196.897-2.223 1.949-3.08 1.027-.833 2.36-1.249 3.997-1.249zm-2.144 4.855c-.065.39.006.709.214.956.221.246.527.364.917.35h1.481l.449-2.573h-1.482c-.403 0-.747.117-1.033.35-.286.222-.468.527-.546.917zm20.396-4.835h4.523l-5.401 6.843L172.432 80h-4.075l-2.612-5.869L164.711 80h-3.899l2.398-13.648h3.899l-.916 5.264 3.978-5.264zm9.143 13.96c-1.469 0-2.737-.364-3.802-1.092-1.027-.728-1.755-1.644-2.184-2.749-.416-1.105-.527-2.281-.332-3.53.312-1.884 1.203-3.502 2.672-4.854 1.481-1.365 3.301-2.047 5.459-2.047 1.092 0 2.08.208 2.963.624.897.403 1.606.962 2.126 1.677 1.079 1.468 1.469 3.132 1.17 4.99-.299 1.899-1.177 3.536-2.633 4.914-1.429 1.378-3.243 2.067-5.439 2.067zm-1.931-4.757c.52.623 1.261.935 2.223.935a3.85 3.85 0 002.554-.935 3.97 3.97 0 001.365-2.38c.169-.948-.006-1.734-.526-2.358-.52-.637-1.261-.956-2.223-.956-.975 0-1.826.319-2.554.956a3.888 3.888 0 00-1.365 2.359c-.169.949.006 1.742.526 2.379zm22.832-9.203h4.094L201.911 80h-3.899l1.15-6.57-3.822 5.03h-.351l-2.222-5.284-1.19 6.824h-3.899l2.398-13.648h3.9l2.047 5.596 4.192-5.596zm6.045 0h10.724L214.586 80h-3.9l1.736-9.866h-2.925L207.762 80h-3.9l2.398-13.648zM228.632 80h-4.075l-.156-1.755h-3.939l-.78 1.755h-4.309l6.746-13.648h4.563L228.632 80zm-4.914-9.066l-1.871 4.192h2.261l-.39-4.192zm14.451.253l.858-4.835h3.899L240.528 80h-3.899l.877-5.03h-3.315l-.877 5.03h-3.899l2.398-13.648h3.899l-.858 4.835h3.315zM245.596 80h-3.12l2.399-13.648h3.899l-1.053 6.044 5.342-6.044h3.12L253.785 80h-3.9l1.053-6.044L245.596 80zm17.425-13.668h5.459l-2.418 13.649h-3.899l.76-4.29h-.331l-3.198 4.29h-4.445l3.821-4.953a3.5 3.5 0 01-1.54-1.833c-.299-.805-.351-1.65-.156-2.534.247-1.196.897-2.223 1.95-3.08 1.026-.833 2.359-1.249 3.997-1.249zm-2.145 4.855c-.065.39.006.709.214.956.221.246.527.364.917.35h1.482l.448-2.573h-1.482c-.403 0-.747.117-1.033.35-.286.222-.468.527-.546.917z" fill="#fff"/></g><g clip-path="url(#clip0)"><path d="M31.338 27.038l1.389 6.449H42.81l3.435-6.009-2.777 15.754h13.446L64.37.586H50.265l-9.865 17-3.873-17H22.569l-7.527 42.646h13.446l2.85-16.194zm68.766 16.194h16.661l7.673-9.745 5.189 9.745h14.323L132.842 22.57 150.235.586h-16.662l-7.381 9.38-4.896-9.38h-14.323l10.742 20.224-12.496 15.9-5.115 6.522zm-25.943 0l4.166-9.745h6.723l.804 9.745h13.665l-.95-6.448L93.161.66H81.47L60.277 43.232H74.16zm7.235-17.44l2.777-6.374.438 6.375h-3.215z" fill="#fff"/><path d="M161.196 47.922l5.408-30.556h-13.373l-7.527 42.5h30.254l2.119-11.944h-16.881zm26.892-30.629l-7.527 42.5h13.447l7.527-42.5h-13.447zm40.997 0l-3.143 18.026-9.646-18.026h-10.231l-7.527 42.5h13.447l3.142-17.88 9.5 17.88h10.377l7.527-42.5h-13.446zm45.088 12.017l2.046-11.944h-29.157l-7.527 42.5h29.231l2.046-11.944h-15.785l.658-4.03h11.254l2.046-11.285h-11.254l.512-3.297h15.93zM14.165 47.922L10 59.866h131.027l2.119-11.944H14.166z" fill="#009A17"/><path d="M154.035 12.677L156.154.732H281.7l-4.604 11.944H154.035zM290.542 2.272c.585 0 1.17.146 1.754.366.512.22.95.513 1.462.952.438.44.731.88.95 1.466.219.513.365 1.1.365 1.759 0 .806-.146 1.538-.584 2.198-.439.66-.95 1.245-1.608 1.612-.731.44-1.462.586-2.192.586-.804 0-1.535-.146-2.193-.586-.731-.44-1.242-.953-1.607-1.612-.439-.66-.585-1.466-.585-2.198 0-.733.146-1.54.585-2.199.438-.66.95-1.245 1.607-1.612.512-.586 1.243-.732 2.046-.732zm0 .879c-.657 0-1.242.146-1.827.44a3.38 3.38 0 00-1.242 1.245c-.365.513-.438 1.173-.438 1.759 0 .586.146 1.245.438 1.758.366.513.731.953 1.316 1.246.511.293 1.169.44 1.826.44a3.95 3.95 0 001.827-.44c.512-.293.95-.733 1.243-1.246.292-.513.438-1.172.438-1.758 0-.586-.146-1.246-.438-1.759a3.385 3.385 0 00-1.243-1.246c-.657-.293-1.242-.44-1.9-.44zm-1.023 5.862h-.95v-4.69h2.193c.365 0 .657.073.877.147.219.146.438.293.511.44.146.146.146.44.146.659 0 .366-.146.66-.365.88-.219.219-.512.439-.95.439.219.073.365.146.511.366.147.147.293.44.512.733l.585.953h-1.17l-.438-.733c-.146-.367-.366-.586-.439-.733-.146-.147-.219-.293-.438-.366-.146-.074-.292-.147-.439-.147h-.219v2.052h.073zm0-3.884v1.246h.731c.365 0 .658-.073.804-.147.146-.146.292-.293.292-.513 0-.146-.073-.366-.219-.44-.146-.146-.438-.146-.731-.146h-.877z" fill="#fff"/></g><defs><clipPath id="clip0"><path fill="#fff" transform="translate(10)" d="M0 0h285v60.086H0z"/></clipPath><filter id="filter0_d" x=".495" y="64.936" width="274.606" height="27.515" filterUnits="userSpaceOnUse" color-interpolation-filters="sRGB"><feFlood flood-opacity="0" result="BackgroundImageFix"/><feColorMatrix in="SourceAlpha" values="0 0 0 0 0 0 0 0 0 0 0 0 0 0 0 0 0 0 127 0"/><feOffset dy="5.518"/><feGaussianBlur stdDeviation="3.311"/><feColorMatrix values="0 0 0 0 0 0 0 0 0 0 0 0 0 0 0 0 0 0 0.6 0"/><feBlend in2="BackgroundImageFix" result="effect1_dropShadow"/><feBlend in="SourceGraphic" in2="effect1_dropShadow" result="shape"/></filter></defs></svg>