<svg width="547" height="207" viewBox="0 0 547 207" fill="none" xmlns="http://www.w3.org/2000/svg">
<g filter="url(#filter0_d)">
<path d="M25 20.5494L70.9912 5H108.222L81.2844 158.304H37.4833L55.8798 52.9622L28.7231 59.3134L25 20.5494Z" fill="url(#paint0_linear)"/>
<path d="M191.184 5L183.738 47.4871H170.143L167.295 58.6564H174.085C189.707 58.6564 201.971 63.3285 210.878 72.6727C219.784 82.017 222.704 95.2303 219.638 112.313C216.718 128.373 209.345 140.637 197.518 149.106C185.838 157.574 171.822 161.808 155.469 161.808C141.307 161.808 129.553 158.742 120.209 152.61C111.011 146.332 104.66 137.279 101.156 125.453L141.672 104.21C144.446 114.284 150.724 119.321 160.506 119.321C169.851 119.321 175.18 115.817 176.494 108.809C177.224 105.305 176.494 102.531 174.304 100.486C172.26 98.4424 169.267 97.4204 165.324 97.4204H114.953L137.511 5H191.184Z" fill="url(#paint1_linear)"/>
</g>
<g filter="url(#filter1_d)">
<path d="M223.728 17.6007C223.002 21.2715 221.085 24.055 217.979 25.9509C221.166 28.1696 222.437 31.3766 221.791 35.5719C221.267 39.1621 219.492 42.0463 216.467 44.2247C213.482 46.3626 209.649 47.4316 204.97 47.4316H187.059L194.502 5.07528H210.718C215.317 5.07528 218.806 6.26529 221.186 8.64532C223.526 10.985 224.373 13.9701 223.728 17.6007ZM208.782 15.4828H204.788L203.76 21.1707L208.419 21.1102C210.194 20.8682 211.223 19.9403 211.505 18.3268C211.666 17.3586 211.485 16.6527 210.96 16.209C210.436 15.7249 209.71 15.4828 208.782 15.4828ZM209.992 33.9986C210.275 32.264 209.589 31.2757 207.935 31.0337L202.065 30.9732L200.976 37.0241H206.059C207.068 37.0241 207.915 36.7619 208.6 36.2375C209.327 35.6727 209.79 34.9264 209.992 33.9986ZM250.808 5.07528H264.967L246.996 29.0974L243.789 47.4316H231.688L234.894 29.1579L225.395 5.07528H238.101L242.216 17.9032L250.808 5.07528ZM272.67 47.4316H260.568L268.011 5.07528H277.692L287.434 25.4063L291.004 5.07528H303.106L295.664 47.4316H285.982L276.24 27.1006L272.67 47.4316Z" fill="url(#paint2_linear)"/>
</g>
<path d="M263.074 73.4212L265.886 57.574H278.666L270.806 102.304H258.026L260.902 85.8178H250.039L247.163 102.304H234.383L242.243 57.574H255.023L252.211 73.4212H263.074ZM300.387 103.326C295.573 103.326 291.42 102.134 287.926 99.7479C284.561 97.3623 282.175 94.359 280.77 90.7381C279.406 87.1171 279.044 83.2618 279.683 79.1722C280.706 72.9952 283.624 67.6915 288.438 63.2611C293.294 58.7881 299.258 56.5516 306.33 56.5516C309.908 56.5516 313.146 57.2332 316.042 58.5964C318.982 59.917 321.303 61.7488 323.007 64.0918C326.543 68.9056 327.821 74.3584 326.841 80.4502C325.862 86.6698 322.986 92.0373 318.215 96.5529C313.529 101.069 307.586 103.326 300.387 103.326ZM294.061 87.7348C295.765 89.7796 298.193 90.802 301.345 90.802C304.498 90.802 307.288 89.7796 309.716 87.7348C312.145 85.6474 313.636 83.0488 314.189 79.939C314.743 76.8292 314.168 74.2519 312.464 72.2071C310.76 70.1197 308.332 69.076 305.179 69.076C301.984 69.076 299.194 70.1197 296.809 72.2071C294.38 74.2519 292.889 76.8292 292.336 79.939C291.782 83.0488 292.357 85.6474 294.061 87.7348ZM366.523 70.8013C365.756 74.6779 363.732 77.6173 360.452 79.6195C363.818 81.9625 365.16 85.3492 364.478 89.7796C363.924 93.5709 362.05 96.6168 358.855 98.9172C355.702 101.175 351.655 102.304 346.714 102.304H327.799L335.659 57.574H352.784C357.641 57.574 361.326 58.8307 363.839 61.3441C366.31 63.8149 367.204 66.9673 366.523 70.8013ZM350.74 68.5648H346.522L345.436 74.5714L350.356 74.5075C352.231 74.2519 353.317 73.2721 353.615 71.5681C353.785 70.5457 353.594 69.8002 353.04 69.3316C352.486 68.8204 351.719 68.5648 350.74 68.5648ZM352.018 88.1182C352.316 86.2864 351.592 85.2427 349.845 84.9871L343.647 84.9232L342.496 91.3132H347.864C348.929 91.3132 349.824 91.0363 350.548 90.4825C351.315 89.8861 351.805 89.098 352.018 88.1182ZM384.381 102.304H366.489L374.349 57.574H387.128L384.892 70.2262H390.068C394.37 70.2262 397.864 71.8024 400.547 74.9548C403.274 78.0646 404.211 82.0477 403.359 86.9041C402.507 91.7605 400.398 95.5518 397.033 98.2782C393.71 100.962 389.493 102.304 384.381 102.304ZM416.97 102.368H404.19L412.049 57.6379H424.829L416.97 102.368ZM382.719 82.6228L381.441 89.9074H386.553C387.576 89.9074 388.47 89.5879 389.237 88.9489C390.047 88.2673 390.536 87.3727 390.707 86.2651C390.92 85.1575 390.749 84.2842 390.196 83.6452C389.642 82.9636 388.854 82.6228 387.831 82.6228H382.719ZM464.425 57.574H477.844L469.984 102.304H457.204L460.974 80.7697L448.45 97.2558H447.3L440.015 79.939L436.117 102.304H423.337L431.197 57.574H443.977L450.686 75.9133L464.425 57.574Z" fill="url(#paint3_linear)"/>
<path d="M254.607 155H244.383L252.243 110.27H265.023L261.572 130.079L279.081 110.27H289.305L281.445 155H268.665L272.116 135.191L254.607 155ZM295.675 110.27H323.152L320.979 122.667H306.282L300.595 155H287.815L295.675 110.27ZM326.377 110.27H343.949C348.252 110.27 351.788 111.804 354.557 114.871C357.283 117.853 358.306 121.879 357.624 126.948C356.9 131.677 354.876 135.425 351.553 138.194C348.188 140.963 343.885 142.348 338.646 142.348H333.534L331.297 155H318.517L326.377 110.27ZM344.972 126.309C345.185 125.201 344.972 124.328 344.333 123.689C343.694 123.007 342.842 122.667 341.777 122.667H336.984L335.706 129.951H340.818C341.841 129.951 342.735 129.632 343.502 128.993C344.311 128.311 344.801 127.417 344.972 126.309ZM380.34 156.022C375.526 156.022 371.373 154.83 367.879 152.444C364.514 150.058 362.128 147.055 360.723 143.434C359.359 139.813 358.997 135.958 359.636 131.868C360.659 125.691 363.577 120.388 368.391 115.957C373.247 111.484 379.211 109.248 386.282 109.248C389.861 109.248 393.098 109.929 395.995 111.293C398.935 112.613 401.256 114.445 402.96 116.788C406.496 121.602 407.774 127.054 406.794 133.146C405.815 139.366 402.939 144.733 398.168 149.249C393.482 153.765 387.539 156.022 380.34 156.022ZM374.014 140.431C375.718 142.476 378.146 143.498 381.298 143.498C384.451 143.498 387.241 142.476 389.669 140.431C392.097 138.343 393.588 135.745 394.142 132.635C394.696 129.525 394.121 126.948 392.417 124.903C390.713 122.816 388.285 121.772 385.132 121.772C381.937 121.772 379.147 122.816 376.761 124.903C374.333 126.948 372.842 129.525 372.288 132.635C371.735 135.745 372.31 138.343 374.014 140.431ZM438.424 110.27H453.249L435.549 132.699L445.837 155H432.482L423.919 135.766L420.532 155H407.752L415.612 110.27H428.392L425.389 127.523L438.424 110.27ZM489.929 155H476.573L476.062 149.249H463.154L460.598 155H446.477L468.586 110.27H483.539L489.929 155ZM473.826 125.287L467.691 139.025H475.104L473.826 125.287ZM533.582 110.27H547.001L539.141 155H526.361L530.132 133.466L517.607 149.952H516.457L509.172 132.635L505.274 155H492.494L500.354 110.27H513.134L519.844 128.609L533.582 110.27Z" fill="url(#paint4_linear)"/>
<defs>
<filter id="filter0_d" x="0.874382" y="0.979063" width="244.067" height="205.059" filterUnits="userSpaceOnUse" color-interpolation-filters="sRGB">
<feFlood flood-opacity="0" result="BackgroundImageFix"/>
<feColorMatrix in="SourceAlpha" type="matrix" values="0 0 0 0 0 0 0 0 0 0 0 0 0 0 0 0 0 0 127 0"/>
<feOffset dy="20.1047"/>
<feGaussianBlur stdDeviation="12.0628"/>
<feColorMatrix type="matrix" values="0 0 0 0 0 0 0 0 0 0 0 0 0 0 0 0 0 0 0.6 0"/>
<feBlend mode="normal" in2="BackgroundImageFix" result="effect1_dropShadow"/>
<feBlend mode="normal" in="SourceGraphic" in2="effect1_dropShadow" result="shape"/>
</filter>
<filter id="filter1_d" x="180.394" y="3.96434" width="129.378" height="55.6877" filterUnits="userSpaceOnUse" color-interpolation-filters="sRGB">
<feFlood flood-opacity="0" result="BackgroundImageFix"/>
<feColorMatrix in="SourceAlpha" type="matrix" values="0 0 0 0 0 0 0 0 0 0 0 0 0 0 0 0 0 0 127 0"/>
<feOffset dy="5.55472"/>
<feGaussianBlur stdDeviation="3.33283"/>
<feColorMatrix type="matrix" values="0 0 0 0 0 0 0 0 0 0 0 0 0 0 0 0 0 0 0.6 0"/>
<feBlend mode="normal" in2="BackgroundImageFix" result="effect1_dropShadow"/>
<feBlend mode="normal" in="SourceGraphic" in2="effect1_dropShadow" result="shape"/>
</filter>
<linearGradient id="paint0_linear" x1="117.37" y1="72.3039" x2="117.37" y2="126.304" gradientUnits="userSpaceOnUse">
<stop stop-color="white"/>
<stop offset="1" stop-color="#D8D8D8"/>
</linearGradient>
<linearGradient id="paint1_linear" x1="117.37" y1="72.3039" x2="117.37" y2="126.304" gradientUnits="userSpaceOnUse">
<stop stop-color="white"/>
<stop offset="1" stop-color="#D8D8D8"/>
</linearGradient>
<linearGradient id="paint2_linear" x1="244.014" y1="23.4316" x2="244.014" y2="38.075" gradientUnits="userSpaceOnUse">
<stop stop-color="white"/>
<stop offset="1" stop-color="#D8D8D8"/>
</linearGradient>
<linearGradient id="paint3_linear" x1="261.651" y1="70.3039" x2="476.941" y2="101.365" gradientUnits="userSpaceOnUse">
<stop stop-color="#00EE33"/>
<stop offset="1" stop-color="#009A17"/>
</linearGradient>
<linearGradient id="paint4_linear" x1="278.458" y1="123" x2="543.308" y2="171.871" gradientUnits="userSpaceOnUse">
<stop stop-color="#00EE33"/>
<stop offset="1" stop-color="#009A17"/>
</linearGradient>
</defs>
</svg>
