<svg width="655" height="208" viewBox="0 0 655 208" fill="none" xmlns="http://www.w3.org/2000/svg">
<g filter="url(#filter0_d)">
<path d="M216.184 5L208.738 47.4871H195.143L192.295 58.6564H199.085C214.707 58.6564 226.971 63.3285 235.878 72.6727C244.784 82.017 247.704 95.2303 244.638 112.313C241.718 128.373 234.345 140.637 222.518 149.106C210.838 157.574 195.63 163 179.277 163C165.115 163 165.308 163 165.308 163H153.808L160 120.5C173.969 120.5 185.506 119.321 185.506 119.321C185.506 119.321 200.18 115.817 201.494 108.809C202.224 105.305 201.494 102.531 199.304 100.486C197.26 98.4424 194.267 97.4204 190.324 97.4204H139.953L162.511 5H216.184Z" fill="url(#paint0_linear)"/>
</g>
<g filter="url(#filter1_d)">
<mask id="mask0" mask-type="alpha" maskUnits="userSpaceOnUse" x="245" y="2" width="149" height="166">
<path d="M245 52H394V168H245V52Z" fill="url(#paint1_linear)"/>
<path d="M335 2H394V155H310L335 2Z" fill="url(#paint2_linear)"/>
</mask>
<g mask="url(#mask0)">
<path d="M302.29 162C282.548 162 268.171 154.493 259.158 139.48C250.145 124.466 247.785 105.091 252.077 81.3552C256.368 57.1903 264.952 38.459 277.827 25.1612C290.845 11.7204 307.511 5 327.825 5C347.424 5 361.73 12.5068 370.742 27.5205C379.755 42.3912 382.187 61.7659 378.038 85.6448C373.747 109.953 365.092 128.755 352.074 142.053C339.198 155.351 322.604 162 302.29 162ZM335.55 83.5C339.556 58.9062 334.907 46.6093 321.602 46.6093C307.726 46.6093 298.785 58.9062 294.779 83.5C290.344 108.094 294.922 120.391 308.513 120.391C322.103 120.391 331.116 108.094 335.55 83.5Z" fill="url(#paint3_linear)"/>
</g>
</g>
<g filter="url(#filter2_d)">
<path d="M250.044 18.169C249.317 21.8399 247.401 24.6233 244.295 26.5193C247.482 28.7379 248.753 31.9449 248.107 36.1402C247.583 39.7304 245.808 42.6147 242.782 44.793C239.797 46.931 235.965 48 231.286 48H213.375L220.818 5.64364H237.034C241.633 5.64364 245.122 6.83365 247.502 9.21368C249.842 11.5534 250.689 14.5385 250.044 18.169ZM235.098 16.0512H231.104L230.076 21.7391L234.735 21.6785C236.51 21.4365 237.538 20.5087 237.821 18.8951C237.982 17.927 237.801 17.221 237.276 16.7773C236.752 16.2932 236.026 16.0512 235.098 16.0512ZM236.308 34.567C236.59 32.8324 235.905 31.8441 234.251 31.602L228.381 31.5415L227.292 37.5924H232.375C233.383 37.5924 234.231 37.3302 234.916 36.8058C235.642 36.2411 236.106 35.4948 236.308 34.567ZM277.124 5.64364H291.283L273.312 29.6657L270.105 48H258.003L261.21 29.7263L251.71 5.64364H264.417L268.532 18.4716L277.124 5.64364ZM298.986 48H286.884L294.327 5.64364H304.008L313.75 25.9747L317.32 5.64364H329.422L321.979 48H312.298L302.556 27.6689L298.986 48Z" fill="url(#paint4_linear)"/>
</g>
<g filter="url(#filter3_d)">
<path d="M148.104 163H37L42.4893 130.782L103.53 76.2765C113.631 67.4497 119.047 60.6825 119.779 55.9749C120.072 53.621 119.486 51.7086 118.022 50.2374C116.705 48.6192 114.729 47.8101 112.094 47.8101C104.482 47.8101 97.3824 53.2533 90.7952 64.1397L54.7854 42.2933C61.8117 30.23 70.8142 21.0354 81.7928 14.7095C92.9178 8.2365 104.848 5 117.583 5C132.368 5 144.517 10.0019 154.032 20.0056C163.401 29.8622 166.767 42.514 164.132 57.9609C162.669 66.9348 159.668 74.6583 155.13 81.1313C150.885 87.3101 144.005 94.5186 134.49 102.757L114.289 120.19H155.569L148.104 163Z" fill="url(#paint5_linear)"/>
</g>
<path d="M14.6575 63.6987H41.7808L37.0382 90.6622H41.0348L37.9441 108.141H27.2866L28.5655 101H12.6326L11.3537 108.141H0.696175L3.73356 90.6622H7.67684C9.66624 87.9268 11.0872 84.1611 11.9398 79.3653L14.6575 63.6987ZM18.9205 90.6622H26.3808L29.4181 73.5036H23.6098L22.5441 79.4718C21.6914 84.1611 20.4836 87.8913 18.9205 90.6622ZM60.7146 101.853C56.7002 101.853 53.2365 100.858 50.3235 98.8685C47.517 96.8791 45.5276 94.3746 44.3553 91.355C43.2185 88.3353 42.9165 85.1203 43.4494 81.7099C44.302 76.5588 46.7355 72.1359 50.7498 68.4413C54.7996 64.7112 59.7731 62.8461 65.6703 62.8461C68.6544 62.8461 71.3543 63.4146 73.77 64.5514C76.2212 65.6526 78.1573 67.1802 79.5783 69.1341C82.5269 73.1484 83.5927 77.6956 82.7756 82.7757C81.9585 87.9623 79.5606 92.4385 75.5818 96.2041C71.674 99.9698 66.7183 101.853 60.7146 101.853ZM55.4391 88.8504C56.8601 90.5556 58.885 91.4082 61.5139 91.4082C64.1427 91.4082 66.4696 90.5556 68.4945 88.8504C70.5195 87.1097 71.7628 84.9427 72.2247 82.3494C72.6865 79.756 72.2069 77.6068 70.7859 75.9016C69.3649 74.1609 67.34 73.2905 64.7111 73.2905C62.0467 73.2905 59.7199 74.1609 57.7305 75.9016C55.7055 77.6068 54.4622 79.756 54.0003 82.3494C53.5385 84.9427 54.0181 87.1097 55.4391 88.8504Z" fill="url(#paint6_linear)"/>
<path d="M434.585 59.914L436.93 46.6987H447.587L441.033 84H430.375L432.773 70.2518H423.714L421.316 84H410.659L417.213 46.6987H427.871L425.526 59.914H434.585ZM465.701 84.8526C461.686 84.8526 458.223 83.8579 455.31 81.8685C452.503 79.8791 450.514 77.3746 449.342 74.355C448.205 71.3353 447.903 68.1203 448.436 64.7099C449.288 59.5588 451.722 55.1359 455.736 51.4413C459.786 47.7112 464.759 45.8461 470.657 45.8461C473.641 45.8461 476.341 46.4146 478.756 47.5514C481.207 48.6526 483.144 50.1802 484.565 52.1341C487.513 56.1484 488.579 60.6956 487.762 65.7757C486.945 70.9623 484.547 75.4385 480.568 79.2041C476.66 82.9698 471.705 84.8526 465.701 84.8526ZM460.425 71.8504C461.846 73.5556 463.871 74.4082 466.5 74.4082C469.129 74.4082 471.456 73.5556 473.481 71.8504C475.506 70.1097 476.749 67.9427 477.211 65.3494C477.673 62.756 477.193 60.6068 475.772 58.9016C474.351 57.1609 472.326 56.2905 469.697 56.2905C467.033 56.2905 464.706 57.1609 462.717 58.9016C460.692 60.6068 459.448 62.756 458.987 65.3494C458.525 67.9427 459.004 70.1097 460.425 71.8504ZM520.853 57.7293C520.213 60.962 518.526 63.4133 515.791 65.0829C518.597 67.0368 519.716 69.861 519.148 73.5556C518.686 76.7174 517.123 79.2574 514.458 81.1758C511.83 83.0586 508.455 84 504.334 84H488.561L495.115 46.6987H509.396C513.446 46.6987 516.519 47.7467 518.615 49.8427C520.675 51.9032 521.421 54.532 520.853 57.7293ZM507.691 55.8642H504.174L503.268 60.8732L507.371 60.8199C508.934 60.6068 509.84 59.7897 510.089 58.3687C510.231 57.5161 510.071 56.8944 509.609 56.5036C509.147 56.0774 508.508 55.8642 507.691 55.8642ZM508.757 72.1702C509.005 70.6426 508.401 69.7722 506.945 69.5591L501.776 69.5058L500.817 74.8345H505.293C506.181 74.8345 506.927 74.6036 507.531 74.1418C508.171 73.6445 508.579 72.9872 508.757 72.1702ZM535.745 84H520.825L527.379 46.6987H538.036L536.171 57.2497H540.488C544.076 57.2497 546.989 58.5641 549.227 61.1929C551.5 63.7863 552.282 67.1079 551.572 71.1577C550.861 75.2076 549.103 78.3693 546.296 80.6429C543.525 82.881 540.008 84 535.745 84ZM562.922 84.0533H552.264L558.819 46.752H569.476L562.922 84.0533ZM534.36 67.5874L533.294 73.6622H537.557C538.409 73.6622 539.156 73.3958 539.795 72.8629C540.47 72.2945 540.878 71.5485 541.021 70.6248C541.198 69.7012 541.056 68.9729 540.594 68.44C540.132 67.8716 539.475 67.5874 538.623 67.5874H534.36ZM602.496 46.6987H613.686L607.132 84H596.474L599.618 66.0421L589.174 79.7903H588.215L582.14 65.3494L578.889 84H568.232L574.786 46.6987H585.444L591.039 61.9923L602.496 46.6987Z" fill="url(#paint7_linear)"/>
<path d="M410.846 127.944H402.32L408.874 90.6431H419.532L416.654 107.162L431.255 90.6431H439.781L433.226 127.944H422.569L425.447 111.425L410.846 127.944ZM445.093 90.6431H468.007L466.195 100.981H453.939L449.196 127.944H438.539L445.093 90.6431ZM470.696 90.6431H485.35C488.938 90.6431 491.887 91.922 494.196 94.4798C496.469 96.9665 497.322 100.324 496.753 104.551C496.15 108.494 494.462 111.621 491.691 113.93C488.885 116.239 485.297 117.393 480.927 117.393H476.664L474.799 127.944H464.142L470.696 90.6431ZM486.203 104.018C486.38 103.095 486.203 102.366 485.67 101.833C485.137 101.265 484.426 100.981 483.538 100.981H479.542L478.476 107.056H482.739C483.591 107.056 484.338 106.789 484.977 106.256C485.652 105.688 486.06 104.942 486.203 104.018ZM515.697 128.797C511.682 128.797 508.219 127.802 505.306 125.813C502.499 123.823 500.51 121.319 499.338 118.299C498.201 115.28 497.899 112.065 498.432 108.654C499.284 103.503 501.718 99.0803 505.732 95.3857C509.782 91.6555 514.755 89.7905 520.653 89.7905C523.637 89.7905 526.337 90.3589 528.752 91.4957C531.203 92.597 533.14 94.1245 534.561 96.0784C537.509 100.093 538.575 104.64 537.758 109.72C536.941 114.907 534.543 119.383 530.564 123.148C526.656 126.914 521.701 128.797 515.697 128.797ZM510.421 115.795C511.842 117.5 513.867 118.353 516.496 118.353C519.125 118.353 521.452 117.5 523.477 115.795C525.502 114.054 526.745 111.887 527.207 109.294C527.669 106.7 527.189 104.551 525.768 102.846C524.347 101.105 522.322 100.235 519.693 100.235C517.029 100.235 514.702 101.105 512.713 102.846C510.688 104.551 509.444 106.7 508.983 109.294C508.521 111.887 509 114.054 510.421 115.795ZM564.135 90.6431H576.497L561.737 109.347L570.316 127.944H559.179L552.038 111.905L549.214 127.944H538.557L545.111 90.6431H555.769L553.264 105.031L564.135 90.6431ZM607.085 127.944H595.948L595.522 123.148H584.758L582.626 127.944H570.85L589.287 90.6431H601.757L607.085 127.944ZM593.657 103.166L588.541 114.622H594.723L593.657 103.166ZM643.489 90.6431H654.679L648.125 127.944H637.467L640.611 109.986L630.167 123.735H629.208L623.133 109.294L619.883 127.944H609.225L615.779 90.6431H626.437L632.032 105.937L643.489 90.6431Z" fill="url(#paint8_linear)"/>
<defs>
<filter id="filter0_d" x="115.828" y="0.979063" width="154.114" height="206.251" filterUnits="userSpaceOnUse" color-interpolation-filters="sRGB">
<feFlood flood-opacity="0" result="BackgroundImageFix"/>
<feColorMatrix in="SourceAlpha" type="matrix" values="0 0 0 0 0 0 0 0 0 0 0 0 0 0 0 0 0 0 127 0"/>
<feOffset dy="20.1047"/>
<feGaussianBlur stdDeviation="12.0628"/>
<feColorMatrix type="matrix" values="0 0 0 0 0 0 0 0 0 0 0 0 0 0 0 0 0 0 0.6 0"/>
<feBlend mode="normal" in2="BackgroundImageFix" result="effect1_dropShadow"/>
<feBlend mode="normal" in="SourceGraphic" in2="effect1_dropShadow" result="shape"/>
</filter>
<filter id="filter1_d" x="225.874" y="0.979063" width="178.251" height="205.251" filterUnits="userSpaceOnUse" color-interpolation-filters="sRGB">
<feFlood flood-opacity="0" result="BackgroundImageFix"/>
<feColorMatrix in="SourceAlpha" type="matrix" values="0 0 0 0 0 0 0 0 0 0 0 0 0 0 0 0 0 0 127 0"/>
<feOffset dy="20.1047"/>
<feGaussianBlur stdDeviation="12.0628"/>
<feColorMatrix type="matrix" values="0 0 0 0 0 0 0 0 0 0 0 0 0 0 0 0 0 0 0.6 0"/>
<feBlend mode="normal" in2="BackgroundImageFix" result="effect1_dropShadow"/>
<feBlend mode="normal" in="SourceGraphic" in2="effect1_dropShadow" result="shape"/>
</filter>
<filter id="filter2_d" x="206.709" y="4.53273" width="129.378" height="55.6877" filterUnits="userSpaceOnUse" color-interpolation-filters="sRGB">
<feFlood flood-opacity="0" result="BackgroundImageFix"/>
<feColorMatrix in="SourceAlpha" type="matrix" values="0 0 0 0 0 0 0 0 0 0 0 0 0 0 0 0 0 0 127 0"/>
<feOffset dy="5.55472"/>
<feGaussianBlur stdDeviation="3.33283"/>
<feColorMatrix type="matrix" values="0 0 0 0 0 0 0 0 0 0 0 0 0 0 0 0 0 0 0.6 0"/>
<feBlend mode="normal" in2="BackgroundImageFix" result="effect1_dropShadow"/>
<feBlend mode="normal" in="SourceGraphic" in2="effect1_dropShadow" result="shape"/>
</filter>
<filter id="filter3_d" x="12.8744" y="0.979063" width="176.251" height="206.251" filterUnits="userSpaceOnUse" color-interpolation-filters="sRGB">
<feFlood flood-opacity="0" result="BackgroundImageFix"/>
<feColorMatrix in="SourceAlpha" type="matrix" values="0 0 0 0 0 0 0 0 0 0 0 0 0 0 0 0 0 0 127 0"/>
<feOffset dy="20.1047"/>
<feGaussianBlur stdDeviation="12.0628"/>
<feColorMatrix type="matrix" values="0 0 0 0 0 0 0 0 0 0 0 0 0 0 0 0 0 0 0.6 0"/>
<feBlend mode="normal" in2="BackgroundImageFix" result="effect1_dropShadow"/>
<feBlend mode="normal" in="SourceGraphic" in2="effect1_dropShadow" result="shape"/>
</filter>
<linearGradient id="paint0_linear" x1="142.37" y1="72.3039" x2="142.37" y2="126.304" gradientUnits="userSpaceOnUse">
<stop stop-color="white"/>
<stop offset="1" stop-color="#D8D8D8"/>
</linearGradient>
<linearGradient id="paint1_linear" x1="265.19" y1="73.2492" x2="265.19" y2="130.415" gradientUnits="userSpaceOnUse">
<stop stop-color="white"/>
<stop offset="1" stop-color="#D8D8D8"/>
</linearGradient>
<linearGradient id="paint2_linear" x1="265.19" y1="73.2492" x2="265.19" y2="130.415" gradientUnits="userSpaceOnUse">
<stop stop-color="white"/>
<stop offset="1" stop-color="#D8D8D8"/>
</linearGradient>
<linearGradient id="paint3_linear" x1="267.615" y1="72.3863" x2="267.615" y2="126.452" gradientUnits="userSpaceOnUse">
<stop stop-color="white"/>
<stop offset="1" stop-color="#D8D8D8"/>
</linearGradient>
<linearGradient id="paint4_linear" x1="270.33" y1="24" x2="270.33" y2="38.6434" gradientUnits="userSpaceOnUse">
<stop stop-color="white"/>
<stop offset="1" stop-color="#D8D8D8"/>
</linearGradient>
<linearGradient id="paint5_linear" x1="54.3442" y1="72.8155" x2="54.3442" y2="127.226" gradientUnits="userSpaceOnUse">
<stop stop-color="white"/>
<stop offset="1" stop-color="#D8D8D8"/>
</linearGradient>
<linearGradient id="paint6_linear" x1="17.1177" y1="74" x2="120.903" y2="81.0165" gradientUnits="userSpaceOnUse">
<stop stop-color="#00EE33"/>
<stop offset="1" stop-color="#009A17"/>
</linearGradient>
<linearGradient id="paint7_linear" x1="433.398" y1="57" x2="612.933" y2="82.9025" gradientUnits="userSpaceOnUse">
<stop stop-color="#00EE33"/>
<stop offset="1" stop-color="#009A17"/>
</linearGradient>
<linearGradient id="paint8_linear" x1="430.735" y1="100.944" x2="651.6" y2="141.699" gradientUnits="userSpaceOnUse">
<stop stop-color="#00EE33"/>
<stop offset="1" stop-color="#009A17"/>
</linearGradient>
</defs>
</svg>
