<svg width="163" height="49" fill="none" xmlns="http://www.w3.org/2000/svg"><path d="M162.5 42.746c0 3.137-2.791 5.754-6.327 5.754H6.828C3.292 48.5.5 45.883.5 42.746V6.254C.5 3.117 3.292.5 6.828.5h149.345c3.536 0 6.327 2.617 6.327 5.754v36.492z" stroke="#fff"/><path d="M65.505 31.9h-2.467l-1.35-4.034H56.99l-1.287 4.033h-2.402l4.653-13.731h2.874l4.676 13.731zm-4.225-5.726l-1.222-3.586c-.13-.366-.371-1.229-.729-2.587h-.043a95.748 95.748 0 01-.687 2.587l-1.2 3.586h3.88zm16.191.653c0 1.684-.479 3.015-1.437 3.992-.858.87-1.923 1.304-3.195 1.304-1.373 0-2.36-.468-2.96-1.405h-.044v5.216H67.52V25.258c0-1.06-.03-2.146-.086-3.26h2.037l.129 1.57h.043c.772-1.183 1.945-1.773 3.517-1.773 1.23 0 2.256.461 3.077 1.384.824.925 1.234 2.14 1.234 3.648zm-2.359.08c0-.963-.228-1.758-.686-2.383-.501-.652-1.173-.978-2.016-.978-.572 0-1.09.181-1.555.54a2.488 2.488 0 00-.91 1.416 2.75 2.75 0 00-.108.67v1.651c0 .72.232 1.328.697 1.825.465.496 1.069.744 1.812.744.872 0 1.55-.32 2.036-.958.487-.639.73-1.48.73-2.527zm14.347-.08c0 1.684-.479 3.015-1.438 3.992-.857.87-1.923 1.304-3.194 1.304-1.373 0-2.36-.468-2.96-1.405h-.043v5.216H79.51V25.258c0-1.06-.03-2.146-.086-3.26h2.037l.129 1.57h.043c.771-1.183 1.943-1.773 3.517-1.773 1.229 0 2.255.461 3.078 1.384.82.925 1.232 2.14 1.232 3.648zm-2.36.08c0-.963-.228-1.758-.687-2.383-.5-.652-1.17-.978-2.015-.978-.572 0-1.09.181-1.555.54a2.486 2.486 0 00-.91 1.416 2.83 2.83 0 00-.108.67v1.651c0 .72.233 1.328.696 1.825.465.495 1.068.744 1.814.744.872 0 1.55-.32 2.036-.958.487-.639.73-1.48.73-2.527zm15.763 1.142c0 1.168-.427 2.118-1.284 2.851-.941.802-2.252 1.202-3.937 1.202-1.555 0-2.802-.284-3.746-.855l.536-1.834a6.602 6.602 0 003.348.878c.872 0 1.55-.188 2.039-.562.485-.373.727-.875.727-1.5 0-.557-.2-1.027-.6-1.407-.399-.381-1.065-.735-1.994-1.062-2.531-.897-3.795-2.21-3.795-3.937 0-1.13.443-2.055 1.33-2.775.884-.721 2.064-1.081 3.539-1.081 1.315 0 2.408.218 3.28.652l-.579 1.793c-.815-.42-1.736-.631-2.766-.631-.815 0-1.452.19-1.908.57-.385.34-.579.754-.579 1.244 0 .542.22.991.664 1.344.386.326 1.086.679 2.103 1.06 1.243.475 2.157 1.032 2.744 1.67.586.635.878 1.43.878 2.38zm7.656-4.4h-2.552v4.807c0 1.223.45 1.834 1.351 1.834a4.28 4.28 0 001.029-.103l.064 1.67c-.456.163-1.057.244-1.801.244-.915 0-1.629-.265-2.145-.794-.514-.53-.773-1.42-.773-2.67v-4.99h-1.52v-1.651h1.52v-1.813l2.275-.652v2.465h2.552v1.653zm11.517 3.218c0 1.522-.459 2.771-1.373 3.749-.959 1.006-2.232 1.507-3.819 1.507-1.529 0-2.747-.482-3.655-1.445-.908-.964-1.362-2.18-1.362-3.647 0-1.534.467-2.79 1.404-3.768.936-.978 2.198-1.467 3.785-1.467 1.529 0 2.759.482 3.688 1.446.889.936 1.332 2.144 1.332 3.625zm-2.403.071c0-.913-.205-1.696-.621-2.35-.486-.79-1.18-1.184-2.079-1.184-.931 0-1.638.395-2.123 1.185-.416.654-.622 1.45-.622 2.39 0 .914.206 1.697.622 2.349.5.79 1.2 1.184 2.102 1.184.885 0 1.579-.402 2.079-1.205.427-.665.642-1.457.642-2.369zm9.93-3.005a4.234 4.234 0 00-.73-.061c-.815 0-1.445.292-1.888.877-.385.516-.579 1.168-.579 1.955v5.195h-2.314l.021-6.783c0-1.141-.029-2.18-.087-3.117h2.017l.085 1.894h.064a3.397 3.397 0 011.158-1.568 2.899 2.899 0 011.674-.53c.214 0 .407.014.579.04v2.098zm10.356 2.547c0 .394-.027.726-.085.998h-6.947c.028.978.363 1.726 1.008 2.242.586.461 1.343.692 2.273.692 1.028 0 1.967-.155 2.811-.468l.362 1.527c-.986.409-2.15.612-3.494.612-1.616 0-2.885-.452-3.808-1.355-.921-.903-1.382-2.115-1.382-3.636 0-1.493.429-2.736 1.288-3.728.899-1.059 2.114-1.588 3.644-1.588 1.502 0 2.639.53 3.411 1.588.612.841.919 1.881.919 3.116zm-2.208-.57c.015-.652-.136-1.216-.45-1.692-.4-.611-1.016-.917-1.845-.917-.757 0-1.373.298-1.843.897-.386.476-.615 1.046-.686 1.71l4.824.002zM33.352 24.462c-.028-3.095 2.541-4.6 2.659-4.671-1.456-2.116-3.71-2.405-4.503-2.428-1.895-.198-3.732 1.13-4.697 1.13-.984 0-2.47-1.11-4.072-1.078-2.06.032-3.988 1.222-5.046 3.07-2.182 3.767-.555 9.303 1.536 12.349 1.046 1.49 2.268 3.156 3.868 3.098 1.564-.065 2.15-.995 4.038-.995 1.87 0 2.42.995 4.05.957 1.68-.027 2.738-1.498 3.747-3.003 1.209-1.71 1.694-3.393 1.713-3.48-.04-.013-3.262-1.239-3.293-4.949zM30.27 15.36c.842-1.05 1.418-2.478 1.258-3.927-1.218.054-2.742.84-3.62 1.867-.775.905-1.469 2.387-1.29 3.782 1.369.102 2.774-.689 3.652-1.722z" fill="#fff"/></svg>