<svg width="163" height="49" fill="none" xmlns="http://www.w3.org/2000/svg"><path d="M162.5 42.746c0 3.093-3.068 5.754-7.06 5.754H7.562C3.569 48.5.5 45.839.5 42.746V6.254C.5 3.16 3.57.5 7.562.5H155.44c3.992 0 7.06 2.661 7.06 5.754v36.492z" stroke="#fff"/><path fill-rule="evenodd" clip-rule="evenodd" d="M15.308 11.204v26.591L27.448 24.5l-12.14-13.296zm-.49 27.89L28.143 24.5 14.818 9.906v29.188z" fill="#fff"/><path fill-rule="evenodd" clip-rule="evenodd" d="M14.818 9.8v.106L28.143 24.5l3.579-3.92L14.818 9.8zm16.104 10.894L17.617 12.21l10.526 11.53 2.779-3.045zm.8 7.726l-3.579-3.92-13.325 14.594v.106l16.904-10.78zm-14.105 8.37l13.305-8.485-2.779-3.043L17.617 36.79z" fill="#fff"/><path fill-rule="evenodd" clip-rule="evenodd" d="M28.143 24.5l3.579 3.92 6.147-3.92-6.147-3.92-3.579 3.92zm.696 0l2.962 3.244 5.088-3.244-5.088-3.245L28.84 24.5z" fill="#fff"/><path d="M122.675 31.712c-.676 0-1.292-.12-1.851-.357a3.466 3.466 0 01-1.407-1.098h-.113c.076.578.113 1.127.113 1.645v4.077h-1.571V21.622h1.278l.218 1.357h.075c.405-.543.875-.934 1.412-1.175.536-.242 1.152-.362 1.846-.362 1.376 0 2.439.449 3.187 1.347.748.898 1.122 2.158 1.122 3.779 0 1.627-.381 2.89-1.141 3.793-.76.9-1.816 1.35-3.168 1.35zm-.227-8.995c-1.061 0-1.828.28-2.301.84-.474.56-.717 1.453-.73 2.677v.334c0 1.392.244 2.388.73 2.988.486.6 1.266.9 2.339.9.897 0 1.599-.347 2.108-1.04.507-.693.761-1.648.761-2.867 0-1.235-.254-2.183-.761-2.843-.509-.66-1.224-.99-2.146-.99zm8.176 8.813h-1.572V17.465h1.572V31.53zm9.038 0l-.313-1.41h-.076c-.518.622-1.033 1.042-1.548 1.261-.515.22-1.157.33-1.927.33-1.029 0-1.835-.252-2.42-.759-.584-.506-.876-1.226-.876-2.16 0-2 1.677-3.05 5.029-3.146l1.762-.055v-.614c0-.778-.176-1.352-.526-1.723-.35-.37-.911-.556-1.681-.556-.865 0-1.844.253-2.936.76l-.483-1.149a7.608 7.608 0 011.682-.623 7.602 7.602 0 011.832-.227c1.237 0 2.154.262 2.751.787.596.524.895 1.365.895 2.523v6.761h-1.165zm-3.551-1.057c.978 0 1.746-.256 2.305-.768.558-.512.838-1.23.838-2.152v-.895l-1.572.063c-1.25.043-2.151.228-2.704.557-.552.328-.828.84-.828 1.532 0 .542.171.956.516 1.238.344.284.825.425 1.445.425zm5.628-8.851h1.685l2.273 5.651c.499 1.29.809 2.221.929 2.794h.075c.083-.308.255-.833.516-1.579.262-.744 1.12-3.032 2.571-6.866h1.687l-4.461 11.283c-.442 1.115-.958 1.906-1.549 2.374-.59.467-1.315.7-2.172.7-.48 0-.954-.051-1.422-.153v-1.203c.348.073.736.109 1.166.109 1.079 0 1.849-.579 2.31-1.736l.578-1.41-4.186-9.963zm-48.266.898c.5.395 1.541 1.223 1.541 2.8 0 1.532-.912 2.259-1.824 2.942-.282.269-.608.56-.608 1.016 0 .455.326.704.566.89l.781.58c.955.767 1.823 1.472 1.823 2.903 0 1.948-1.976 3.916-5.71 3.916-3.147 0-4.666-1.43-4.666-2.964 0-.746.389-1.802 1.671-2.529 1.345-.787 3.17-.89 4.147-.953-.305-.373-.652-.767-.652-1.408 0-.352.11-.56.217-.81-.24.022-.478.042-.695.042-2.3 0-3.603-1.637-3.603-3.253 0-.953.456-2.01 1.389-2.777 1.238-.974 2.714-1.14 3.887-1.14h4.47l-1.388.746h-1.346zm-1.542 9.203c-.173-.022-.282-.022-.498-.022-.196 0-1.37.043-2.28.334-.478.164-1.867.661-1.867 2.134 0 1.47 1.498 2.529 3.821 2.529 2.083 0 3.191-.956 3.191-2.24 0-1.058-.716-1.615-2.367-2.735zm.63-3.938c.499-.478.542-1.14.542-1.514 0-1.491-.933-3.812-2.735-3.812-.565 0-1.172.269-1.52.684-.368.435-.478.994-.478 1.533 0 1.389.847 3.69 2.715 3.69a2.28 2.28 0 001.476-.581zm-12.755 3.606c-3.445 0-5.288-2.566-5.288-4.883 0-2.711 2.319-5.028 5.615-5.028 3.184 0 5.178 2.379 5.178 4.883 0 2.44-1.97 5.028-5.505 5.028zm2.71-1.675c.52-.663.65-1.49.65-2.298 0-1.822-.91-5.297-3.598-5.297-.715 0-1.43.27-1.95.705-.845.723-.998 1.634-.998 2.524 0 2.047 1.062 5.42 3.686 5.42.845 0 1.712-.393 2.21-1.055zM68.06 31.391c-3.447 0-5.29-2.566-5.29-4.883 0-2.711 2.32-5.028 5.614-5.028 3.186 0 5.18 2.379 5.18 4.883 0 2.44-1.972 5.028-5.505 5.028zm2.709-1.675c.52-.663.65-1.49.65-2.298 0-1.822-.91-5.297-3.599-5.297-.714 0-1.43.27-1.95.705-.845.723-.997 1.634-.997 2.524 0 2.047 1.062 5.42 3.685 5.42.846 0 1.712-.393 2.21-1.055zm-9.655 1.351l-3.116.686c-1.264.188-2.397.353-3.595.353-6.015 0-8.302-4.223-8.302-7.53 0-4.036 3.246-7.78 8.803-7.78 1.178 0 2.31.167 3.334.437 1.634.437 2.397.977 2.876 1.29l-1.81 1.643-.761.166.544-.832c-.74-.686-2.093-1.955-4.663-1.955-3.443 0-6.036 2.497-6.036 6.137 0 3.91 2.964 7.592 7.713 7.592 1.396 0 2.113-.27 2.768-.52v-3.348l-3.29.166 1.742-.895h4.62l-.566.52c-.153.125-.175.167-.218.332-.023.187-.043.791-.043.999v2.539z" fill="#fff"/><path d="M100.36 30.468c-.72-.063-.87-.187-.87-1V17.696l.012-.134c.088-.728.306-.852.982-1.227h-3.117l-1.635.748h1.666v.01l-.001-.008v12.843c0 .415-.086.479-.588 1.102h3.857l.807-.457c-.371-.043-.742-.063-1.113-.104zm8.867.192c-.237.123-.475.269-.712.371-.716.31-1.451.393-2.102.393-.69 0-1.773-.043-2.878-.806-1.535-1.034-2.206-2.81-2.206-4.36 0-3.201 2.726-4.771 4.955-4.771.78 0 1.581.185 2.23.579 1.081.68 1.363 1.568 1.513 2.044l-5.084 1.963-1.667.124c.541 2.624 2.402 4.151 4.458 4.151 1.104 0 1.905-.37 2.64-.721l-1.147 1.032zm-2.033-6.158c.41-.144.626-.269.626-.558 0-.825-.973-1.776-2.142-1.776-.867 0-2.489.64-2.489 2.871 0 .351.044.723.066 1.096l3.939-1.633zm4.122-2.874v1.363h-.174v-1.363h-.472v-.141h1.118v.141h-.472zm1.947 1.363v-1.375h-.008l-.44 1.375h-.136l-.443-1.375h-.006v1.375h-.157v-1.504h.27l.401 1.216h.006l.395-1.216h.274v1.504h-.156z" fill="#fff"/></svg>