<svg width="31" height="30" fill="none" xmlns="http://www.w3.org/2000/svg"><path d="M1.59 14.924c2.815-1.551 5.958-2.846 8.895-4.147 5.052-2.13 10.123-4.224 15.247-6.174.997-.332 2.788-.657 2.963.82-.096 2.091-.492 4.17-.763 6.249-.689 4.57-1.485 9.127-2.26 13.683-.268 1.517-2.17 2.303-3.386 1.332-2.924-1.975-5.87-3.93-8.756-5.951-.945-.96-.068-2.34.776-3.026 2.408-2.373 4.961-4.39 7.243-6.885.616-1.486-1.203-.233-1.803.15-3.296 2.272-6.512 4.682-9.987 6.679-1.775.977-3.844.142-5.619-.404-1.59-.658-3.922-1.322-2.55-2.326z" fill="#fff"/></svg>