<svg width="28" height="28" fill="none" xmlns="http://www.w3.org/2000/svg"><g clip-path="url(#clip0)"><path d="M27.407 19.04c-.072-.118-.515-1.067-2.648-3.019-2.233-2.044-1.933-1.712.756-5.245 1.638-2.152 2.293-3.466 2.088-4.028-.195-.536-1.4-.395-1.4-.395l-4.005.023s-.297-.039-.519.09c-.214.129-.353.425-.353.425s-.635 1.665-1.481 3.081c-1.785 2.989-2.5 3.146-2.791 2.96-.678-.431-.509-1.737-.509-2.664 0-2.896.445-4.103-.868-4.416-.436-.103-.756-.172-1.871-.184-1.43-.014-2.641.005-3.326.336-.457.22-.808.71-.593.739.265.034.865.16 1.183.586.412.55.396 1.79.396 1.79s.237 3.408-.551 3.832c-.542.29-1.283-.303-2.875-3.015a25.123 25.123 0 01-1.43-2.924s-.12-.286-.33-.438c-.257-.186-.617-.245-.617-.245l-3.81.023s-.571.016-.781.261c-.187.219-.015.669-.015.669S4.04 14.16 7.416 17.628c3.097 3.178 6.613 2.97 6.613 2.97h1.593s.482-.053.727-.314c.226-.24.218-.69.218-.69s-.032-2.108.962-2.418c.978-.306 2.234 2.037 3.566 2.939 1.006.682 1.77.532 1.77.532l3.562-.05s1.863-.113.98-1.557z" fill="#fff"/></g><defs><clipPath id="clip0"><path fill="#fff" transform="translate(.985 .667)" d="M0 0h26.659v26.659H0z"/></clipPath></defs></svg>