<svg width="27" height="28" fill="none" xmlns="http://www.w3.org/2000/svg"><g clip-path="url(#clip0)"><path d="M25.526 7.431c-.723-1.286-1.508-1.523-3.105-1.613-1.597-.108-5.61-.153-9.088-.153-3.484 0-7.5.045-9.094.152-1.595.091-2.381.326-3.111 1.614C.383 8.716 0 10.93 0 14.824v.014c0 3.878.383 6.108 1.128 7.38.73 1.285 1.515 1.519 3.11 1.627 1.595.093 5.611.148 9.095.148 3.477 0 7.491-.055 9.09-.146 1.597-.109 2.382-.342 3.105-1.628.751-1.271 1.131-3.5 1.131-7.38v-.013c0-3.897-.38-6.11-1.133-7.395zM9.997 19.828V9.83l8.331 4.998-8.33 4.999z" fill="#fff"/></g><defs><clipPath id="clip0"><path fill="#fff" transform="translate(0 .667)" d="M0 0h26.659v26.659H0z"/></clipPath></defs></svg>