<svg width="295" height="93" viewBox="0 0 295 93" fill="none" xmlns="http://www.w3.org/2000/svg">
<g filter="url(#filter0_d)">
<path d="M12.5373 71.3431H14.682C15.9818 71.3431 16.9762 71.7656 17.6651 72.6105C18.354 73.4424 18.5945 74.5082 18.3865 75.808C18.1525 77.1469 17.5871 78.1802 16.6902 78.9081C15.7934 79.636 14.617 80 13.1612 80H7.11698L9.51517 66.3518H18.8739L18.211 70.1343H12.7517L12.5373 71.3431ZM13.8046 74.7357H11.9329L11.6404 76.4905H13.4927C13.7526 76.4905 13.9736 76.4125 14.1556 76.2565C14.3505 76.1005 14.474 75.886 14.526 75.6131C14.578 75.3401 14.5325 75.1256 14.3895 74.9697C14.2596 74.8137 14.0646 74.7357 13.8046 74.7357ZM25.3147 71.5576L28.0248 66.3518H32.3142L26.8355 75.7886C25.9646 77.2834 24.9442 78.3557 23.7744 79.0056C22.6305 79.6425 21.1942 79.974 19.4654 80L20.1088 76.3735C21.1357 76.3475 22.0326 76.0355 22.7995 75.4376L19.8359 66.3518H23.7354L25.3147 71.5576ZM40.2573 66.3518H44.7807L39.3799 73.1954L42.519 80H38.4441L35.8314 74.1313L34.798 80H30.8985L33.2967 66.3518H37.1962L36.2798 71.6161L40.2573 66.3518ZM55.8308 66.3518H59.9252L57.527 80H53.6275L54.7779 73.4294L50.9564 78.4597H50.6054L48.3827 73.1759L47.1934 80H43.2939L45.6921 66.3518H49.5916L51.6388 71.9476L55.8308 66.3518ZM70.7478 66.3518L70.1239 69.9003H65.1521L64.8986 71.3821H69.383L68.7591 74.8917H64.2747L64.0017 76.4125H69.0711L68.4471 80H59.4783L61.8765 66.3518H70.7478ZM79.3665 66.3518H83.8899L78.4891 73.1954L81.6282 80H77.5532L74.9405 74.1313L73.9072 80H70.0077L72.4059 66.3518H76.3054L75.389 71.6161L79.3665 66.3518ZM93.6726 66.3518L93.0487 69.9003H88.0768L87.8233 71.3821H92.3077L91.6838 74.8917H87.1994L86.9265 76.4125H91.9958L91.3719 80H82.403L84.8012 66.3518H93.6726ZM95.3306 66.3518H100.692C102.005 66.3518 103.084 66.8197 103.929 67.7556C104.761 68.6655 105.073 69.8938 104.865 71.4406C104.644 72.8834 104.026 74.0273 103.013 74.8722C101.986 75.7171 100.673 76.1395 99.0741 76.1395H97.5143L96.8319 80H92.9324L95.3306 66.3518ZM101.004 71.2456C101.069 70.9077 101.004 70.6412 100.809 70.4462C100.614 70.2383 100.354 70.1343 100.03 70.1343H98.5672L98.1772 72.357H99.737C100.049 72.357 100.322 72.2595 100.556 72.0645C100.803 71.8566 100.952 71.5836 101.004 71.2456ZM111.621 80.312C109.502 80.312 107.858 79.6166 106.688 78.2257C105.531 76.8349 105.121 75.0866 105.459 72.9809C105.784 70.9662 106.701 69.3024 108.209 67.9896C109.716 66.6897 111.478 66.0398 113.492 66.0398C116.183 66.0398 118.1 67.1577 119.244 69.3934L115.676 71.2846C115.156 70.3358 114.311 69.8613 113.141 69.8613C112.206 69.8613 111.38 70.1733 110.665 70.7972C109.963 71.4081 109.521 72.201 109.339 73.1759C109.183 74.0988 109.339 74.8852 109.807 75.5351C110.275 76.172 110.977 76.4905 111.913 76.4905C112.992 76.4905 113.921 75.9835 114.701 74.9697L117.938 77.0169C117.236 78.0698 116.332 78.8821 115.228 79.4541C114.136 80.026 112.933 80.312 111.621 80.312ZM127.748 66.3518H132.272L126.871 73.1954L130.01 80H125.935L123.322 74.1313L122.289 80H118.39L120.788 66.3518H124.687L123.771 71.6161L127.748 66.3518ZM143.464 80H139.389L139.233 78.2452H135.294L134.514 80H130.205L136.951 66.3518H141.514L143.464 80ZM138.55 70.9337L136.678 75.1256H138.94L138.55 70.9337ZM151.919 66.3323H157.379L154.961 79.9805H151.061L151.822 75.6911H151.49L148.293 79.9805H143.847L147.669 75.0281C146.941 74.5992 146.428 73.9883 146.129 73.1954C145.83 72.3895 145.778 71.5446 145.973 70.6607C146.22 69.4649 146.87 68.438 147.922 67.5801C148.949 66.7482 150.282 66.3323 151.919 66.3323ZM149.775 71.1872C149.71 71.5771 149.781 71.8956 149.989 72.1425C150.21 72.3895 150.516 72.5065 150.906 72.4935H152.387L152.836 69.9198H151.354C150.951 69.9198 150.607 70.0368 150.321 70.2708C150.035 70.4917 149.853 70.7972 149.775 71.1872ZM170.171 66.3518H174.694L169.293 73.1954L172.432 80H168.357L165.745 74.1313L164.711 80H160.812L163.21 66.3518H167.109L166.193 71.6161L170.171 66.3518ZM179.314 80.312C177.845 80.312 176.577 79.948 175.512 79.2201C174.485 78.4922 173.757 77.5758 173.328 76.471C172.912 75.3661 172.801 74.1898 172.996 72.9419C173.308 71.0572 174.199 69.4389 175.668 68.0871C177.149 66.7222 178.969 66.0398 181.127 66.0398C182.219 66.0398 183.207 66.2478 184.09 66.6637C184.987 67.0667 185.696 67.6256 186.216 68.3405C187.295 69.8093 187.685 71.4731 187.386 73.3319C187.087 75.2296 186.209 76.8674 184.753 78.2452C183.324 79.623 181.51 80.312 179.314 80.312ZM177.383 75.5546C177.903 76.1785 178.644 76.4905 179.606 76.4905C180.568 76.4905 181.419 76.1785 182.16 75.5546C182.901 74.9177 183.356 74.1248 183.525 73.1759C183.694 72.227 183.519 71.4406 182.999 70.8167C182.479 70.1798 181.738 69.8613 180.776 69.8613C179.801 69.8613 178.95 70.1798 178.222 70.8167C177.481 71.4406 177.026 72.227 176.857 73.1759C176.688 74.1248 176.863 74.9177 177.383 75.5546ZM200.215 66.3518H204.309L201.911 80H198.012L199.162 73.4294L195.34 78.4597H194.989L192.767 73.1759L191.577 80H187.678L190.076 66.3518H193.976L196.023 71.9476L200.215 66.3518ZM206.26 66.3518H216.984L214.586 80H210.686L212.422 70.1343H209.497L207.762 80H203.862L206.26 66.3518ZM228.632 80H224.557L224.401 78.2452H220.462L219.682 80H215.373L222.119 66.3518H226.682L228.632 80ZM223.718 70.9337L221.847 75.1256H224.108L223.718 70.9337ZM238.169 71.1872L239.027 66.3518H242.926L240.528 80H236.629L237.506 74.9697H234.191L233.314 80H229.415L231.813 66.3518H235.712L234.854 71.1872H238.169ZM245.596 80H242.476L244.875 66.3518H248.774L247.721 72.396L253.063 66.3518H256.183L253.785 80H249.885L250.938 73.9558L245.596 80ZM263.021 66.3323H268.48L266.062 79.9805H262.163L262.923 75.6911H262.592L259.394 79.9805H254.949L258.77 75.0281C258.042 74.5992 257.529 73.9883 257.23 73.1954C256.931 72.3895 256.879 71.5446 257.074 70.6607C257.321 69.4649 257.971 68.438 259.024 67.5801C260.05 66.7482 261.383 66.3323 263.021 66.3323ZM260.876 71.1872C260.811 71.5771 260.882 71.8956 261.09 72.1425C261.311 72.3895 261.617 72.5065 262.007 72.4935H263.489L263.937 69.9198H262.455C262.052 69.9198 261.708 70.0368 261.422 70.2708C261.136 70.4917 260.954 70.7972 260.876 71.1872Z" fill="white"/>
</g>
<g clip-path="url(#clip0)">
<path d="M31.3383 27.0384L32.7268 33.4866H42.8114L46.246 27.4781L43.4691 43.2322H56.9152L64.3691 0.586182H50.2652L40.3998 17.586L36.5268 0.586182H22.5691L15.0421 43.2322H28.4883L31.3383 27.0384Z" fill="white"/>
<path d="M100.104 43.2322H101.858H106.169H116.765L124.438 33.4866L129.627 43.2322H143.95L132.842 22.5687L150.235 0.586182H133.573L126.192 9.96538L121.296 0.586182H106.973L117.715 20.8101L105.219 36.7107L100.104 43.2322Z" fill="white"/>
<path d="M74.1614 43.2323L78.3268 33.4867H85.0499L85.8537 43.2323H95.2076H99.5191L98.5691 36.7841L93.1614 0.659515H81.4691L60.2768 43.2323H74.1614ZM81.396 25.7928L84.1729 19.4179L84.6114 25.7928H81.396Z" fill="white"/>
<path d="M161.196 47.9219L166.604 17.3662H153.231L145.704 59.8657H175.958L178.077 47.9219H161.196Z" fill="#009A17"/>
<path d="M188.088 17.2929L180.561 59.7924H194.008L201.535 17.2929H188.088Z" fill="#009A17"/>
<path d="M229.085 17.2929L225.942 35.3185L216.296 17.2929H206.065L198.538 59.7924H211.985L215.127 41.9133L224.627 59.7924H235.004L242.531 17.2929H229.085Z" fill="#009A17"/>
<path d="M274.173 29.31L276.219 17.3662H247.062L239.535 59.8657H268.766L270.812 47.9219H255.027L255.685 43.8917H266.939L268.985 32.6074H257.731L258.243 29.31H274.173Z" fill="#009A17"/>
<path d="M14.1654 47.9218L10 59.8656H141.027L143.146 47.9218H14.1654Z" fill="#009A17"/>
<path d="M154.035 12.6765L156.154 0.732727H281.7L277.096 12.6765H154.035Z" fill="white"/>
<path d="M290.542 2.27151C291.127 2.27151 291.712 2.41806 292.296 2.63789C292.808 2.85771 293.246 3.15081 293.758 3.59046C294.196 4.03011 294.489 4.46976 294.708 5.05596C294.927 5.56889 295.073 6.15509 295.073 6.81456C295.073 7.62059 294.927 8.35334 294.489 9.01281C294.05 9.67229 293.539 10.2585 292.881 10.6249C292.15 11.0645 291.419 11.2111 290.689 11.2111C289.885 11.2111 289.154 11.0645 288.496 10.6249C287.765 10.1852 287.254 9.67229 286.889 9.01281C286.45 8.35334 286.304 7.54731 286.304 6.81456C286.304 6.08181 286.45 5.27579 286.889 4.61631C287.327 3.95684 287.839 3.37064 288.496 3.00426C289.008 2.41806 289.739 2.27151 290.542 2.27151ZM290.542 3.15081C289.885 3.15081 289.3 3.29736 288.715 3.59046C288.204 3.88356 287.765 4.32321 287.473 4.83614C287.108 5.34906 287.035 6.00854 287.035 6.59474C287.035 7.18094 287.181 7.84041 287.473 8.35334C287.839 8.86626 288.204 9.30591 288.789 9.59901C289.3 9.89211 289.958 10.0387 290.615 10.0387C291.273 10.0387 291.858 9.89211 292.442 9.59901C292.954 9.30591 293.392 8.86626 293.685 8.35334C293.977 7.84041 294.123 7.18094 294.123 6.59474C294.123 6.00854 293.977 5.34906 293.685 4.83614C293.392 4.32321 292.954 3.88356 292.442 3.59046C291.785 3.29736 291.2 3.15081 290.542 3.15081ZM289.519 9.01281H288.569V4.32321H290.762C291.127 4.32321 291.419 4.39649 291.639 4.46976C291.858 4.61631 292.077 4.76286 292.15 4.90941C292.296 5.05596 292.296 5.34906 292.296 5.56889C292.296 5.93526 292.15 6.22836 291.931 6.44819C291.712 6.66801 291.419 6.88784 290.981 6.88784C291.2 6.96111 291.346 7.03439 291.492 7.25421C291.639 7.40076 291.785 7.69386 292.004 7.98696L292.589 8.93954H291.419L290.981 8.20679C290.835 7.84041 290.615 7.62059 290.542 7.47404C290.396 7.32749 290.323 7.18094 290.104 7.10766C289.958 7.03439 289.812 6.96111 289.665 6.96111H289.446V9.01281H289.519ZM289.519 5.12924V6.37491H290.25C290.615 6.37491 290.908 6.30164 291.054 6.22836C291.2 6.08181 291.346 5.93526 291.346 5.71544C291.346 5.56889 291.273 5.34906 291.127 5.27579C290.981 5.12924 290.689 5.12924 290.396 5.12924H289.519Z" fill="white"/>
</g>
<defs>
<filter id="filter0_d" x="0.495377" y="64.9362" width="274.606" height="27.5154" filterUnits="userSpaceOnUse" color-interpolation-filters="sRGB">
<feFlood flood-opacity="0" result="BackgroundImageFix"/>
<feColorMatrix in="SourceAlpha" type="matrix" values="0 0 0 0 0 0 0 0 0 0 0 0 0 0 0 0 0 0 127 0"/>
<feOffset dy="5.51801"/>
<feGaussianBlur stdDeviation="3.31081"/>
<feColorMatrix type="matrix" values="0 0 0 0 0 0 0 0 0 0 0 0 0 0 0 0 0 0 0.6 0"/>
<feBlend mode="normal" in2="BackgroundImageFix" result="effect1_dropShadow"/>
<feBlend mode="normal" in="SourceGraphic" in2="effect1_dropShadow" result="shape"/>
</filter>
<clipPath id="clip0">
<rect width="285" height="60.0855" fill="white" transform="translate(10)"/>
</clipPath>
</defs>
</svg>
